solid ascii
  facet normal 0.000000e+000 -1.000000e+000 0.000000e+000
    outer loop
      vertex   -5.282499e+001 6.229663e+000 1.380000e+001
      vertex   -5.282499e+001 6.229663e+000 2.000023e-001
      vertex   -5.082499e+001 6.229663e+000 1.380000e+001
    endloop
  endfacet
  facet normal 0.000000e+000 -1.000000e+000 -0.000000e+000
    outer loop
      vertex   -5.082499e+001 6.229663e+000 1.380000e+001
      vertex   -5.282499e+001 6.229663e+000 2.000023e-001
      vertex   -5.082499e+001 6.229663e+000 2.000023e-001
    endloop
  endfacet
  facet normal -0.000000e+000 1.000000e+000 0.000000e+000
    outer loop
      vertex   -5.482499e+001 3.122966e+001 1.380000e+001
      vertex   -5.282499e+001 3.122966e+001 1.380000e+001
      vertex   -5.482499e+001 3.122966e+001 2.000023e-001
    endloop
  endfacet
  facet normal -0.000000e+000 1.000000e+000 0.000000e+000
    outer loop
      vertex   -5.482499e+001 3.122966e+001 2.000023e-001
      vertex   -5.282499e+001 3.122966e+001 1.380000e+001
      vertex   -5.282499e+001 3.122966e+001 2.000023e-001
    endloop
  endfacet
  facet normal 0.000000e+000 -1.000000e+000 0.000000e+000
    outer loop
      vertex   -5.482499e+001 2.922966e+001 2.000023e-001
      vertex   -5.282499e+001 2.922966e+001 2.000023e-001
      vertex   -5.482499e+001 2.922966e+001 1.380000e+001
    endloop
  endfacet
  facet normal 0.000000e+000 -1.000000e+000 0.000000e+000
    outer loop
      vertex   -5.482499e+001 2.922966e+001 1.380000e+001
      vertex   -5.282499e+001 2.922966e+001 2.000023e-001
      vertex   -5.282499e+001 2.922966e+001 1.380000e+001
    endloop
  endfacet
  facet normal -1.000000e+000 -0.000000e+000 -0.000000e+000
    outer loop
      vertex   -5.482499e+001 3.122966e+001 1.380000e+001
      vertex   -5.482499e+001 3.122966e+001 2.000023e-001
      vertex   -5.482499e+001 2.922966e+001 1.380000e+001
    endloop
  endfacet
  facet normal -1.000000e+000 -0.000000e+000 -0.000000e+000
    outer loop
      vertex   -5.482499e+001 2.922966e+001 1.380000e+001
      vertex   -5.482499e+001 3.122966e+001 2.000023e-001
      vertex   -5.482499e+001 2.922966e+001 2.000023e-001
    endloop
  endfacet
  facet normal -1.000000e+000 0.000000e+000 0.000000e+000
    outer loop
      vertex   -5.282499e+001 3.122966e+001 2.000023e-001
      vertex   -5.282499e+001 3.122966e+001 1.380000e+001
      vertex   -5.282499e+001 4.122966e+001 2.000023e-001
    endloop
  endfacet
  facet normal -1.000000e+000 0.000000e+000 0.000000e+000
    outer loop
      vertex   -5.282499e+001 4.122966e+001 2.000023e-001
      vertex   -5.282499e+001 3.122966e+001 1.380000e+001
      vertex   -5.282499e+001 4.122966e+001 1.380000e+001
    endloop
  endfacet
  facet normal -0.000000e+000 1.000000e+000 0.000000e+000
    outer loop
      vertex   -5.082499e+001 4.322966e+001 1.380000e+001
      vertex   -4.882499e+001 4.322966e+001 1.380000e+001
      vertex   -5.082499e+001 4.322966e+001 2.000023e-001
    endloop
  endfacet
  facet normal -0.000000e+000 1.000000e+000 0.000000e+000
    outer loop
      vertex   -5.082499e+001 4.322966e+001 2.000023e-001
      vertex   -4.882499e+001 4.322966e+001 1.380000e+001
      vertex   -4.882499e+001 4.322966e+001 2.000023e-001
    endloop
  endfacet
  facet normal 1.000000e+000 0.000000e+000 -0.000000e+000
    outer loop
      vertex   -4.882499e+001 4.322966e+001 2.000023e-001
      vertex   -4.882499e+001 4.322966e+001 1.380000e+001
      vertex   -4.882499e+001 4.122966e+001 2.000023e-001
    endloop
  endfacet
  facet normal 1.000000e+000 0.000000e+000 -0.000000e+000
    outer loop
      vertex   -4.882499e+001 4.122966e+001 2.000023e-001
      vertex   -4.882499e+001 4.322966e+001 1.380000e+001
      vertex   -4.882499e+001 4.122966e+001 1.380000e+001
    endloop
  endfacet
  facet normal 0.000000e+000 -1.000000e+000 0.000000e+000
    outer loop
      vertex   -5.082499e+001 4.122966e+001 2.000023e-001
      vertex   -4.882499e+001 4.122966e+001 2.000023e-001
      vertex   -5.082499e+001 4.122966e+001 1.380000e+001
    endloop
  endfacet
  facet normal 0.000000e+000 -1.000000e+000 0.000000e+000
    outer loop
      vertex   -5.082499e+001 4.122966e+001 1.380000e+001
      vertex   -4.882499e+001 4.122966e+001 2.000023e-001
      vertex   -4.882499e+001 4.122966e+001 1.380000e+001
    endloop
  endfacet
  facet normal 1.000000e+000 0.000000e+000 -0.000000e+000
    outer loop
      vertex   -5.082499e+001 4.122966e+001 2.000023e-001
      vertex   -5.082499e+001 4.122966e+001 1.380000e+001
      vertex   -5.082499e+001 3.122966e+001 2.000023e-001
    endloop
  endfacet
  facet normal 1.000000e+000 0.000000e+000 -0.000000e+000
    outer loop
      vertex   -5.082499e+001 3.122966e+001 2.000023e-001
      vertex   -5.082499e+001 4.122966e+001 1.380000e+001
      vertex   -5.082499e+001 3.122966e+001 1.380000e+001
    endloop
  endfacet
  facet normal -0.000000e+000 1.000000e+000 0.000000e+000
    outer loop
      vertex   -5.082499e+001 3.122966e+001 1.380000e+001
      vertex   -4.882499e+001 3.122966e+001 1.380000e+001
      vertex   -5.082499e+001 3.122966e+001 2.000023e-001
    endloop
  endfacet
  facet normal -0.000000e+000 1.000000e+000 0.000000e+000
    outer loop
      vertex   -5.082499e+001 3.122966e+001 2.000023e-001
      vertex   -4.882499e+001 3.122966e+001 1.380000e+001
      vertex   -4.882499e+001 3.122966e+001 2.000023e-001
    endloop
  endfacet
  facet normal 1.000000e+000 0.000000e+000 -0.000000e+000
    outer loop
      vertex   -4.882499e+001 3.122966e+001 2.000023e-001
      vertex   -4.882499e+001 3.122966e+001 1.380000e+001
      vertex   -4.882499e+001 2.922966e+001 2.000023e-001
    endloop
  endfacet
  facet normal 1.000000e+000 0.000000e+000 -0.000000e+000
    outer loop
      vertex   -4.882499e+001 2.922966e+001 2.000023e-001
      vertex   -4.882499e+001 3.122966e+001 1.380000e+001
      vertex   -4.882499e+001 2.922966e+001 1.380000e+001
    endloop
  endfacet
  facet normal 0.000000e+000 -1.000000e+000 0.000000e+000
    outer loop
      vertex   -5.082499e+001 2.922966e+001 2.000023e-001
      vertex   -4.882499e+001 2.922966e+001 2.000023e-001
      vertex   -5.082499e+001 2.922966e+001 1.380000e+001
    endloop
  endfacet
  facet normal 0.000000e+000 -1.000000e+000 0.000000e+000
    outer loop
      vertex   -5.082499e+001 2.922966e+001 1.380000e+001
      vertex   -4.882499e+001 2.922966e+001 2.000023e-001
      vertex   -4.882499e+001 2.922966e+001 1.380000e+001
    endloop
  endfacet
  facet normal 1.000000e+000 0.000000e+000 -0.000000e+000
    outer loop
      vertex   -5.082499e+001 2.922966e+001 2.000023e-001
      vertex   -5.082499e+001 2.922966e+001 1.380000e+001
      vertex   -5.082499e+001 6.229663e+000 2.000023e-001
    endloop
  endfacet
  facet normal 1.000000e+000 0.000000e+000 -0.000000e+000
    outer loop
      vertex   -5.082499e+001 6.229663e+000 2.000023e-001
      vertex   -5.082499e+001 2.922966e+001 1.380000e+001
      vertex   -5.082499e+001 6.229663e+000 1.380000e+001
    endloop
  endfacet
  facet normal -0.000000e+000 1.000000e+000 0.000000e+000
    outer loop
      vertex   -5.482499e+001 4.322966e+001 1.380000e+001
      vertex   -5.282499e+001 4.322966e+001 1.380000e+001
      vertex   -5.482499e+001 4.322966e+001 2.000023e-001
    endloop
  endfacet
  facet normal -0.000000e+000 1.000000e+000 0.000000e+000
    outer loop
      vertex   -5.482499e+001 4.322966e+001 2.000023e-001
      vertex   -5.282499e+001 4.322966e+001 1.380000e+001
      vertex   -5.282499e+001 4.322966e+001 2.000023e-001
    endloop
  endfacet
  facet normal 0.000000e+000 -1.000000e+000 0.000000e+000
    outer loop
      vertex   -5.482499e+001 4.122966e+001 2.000023e-001
      vertex   -5.282499e+001 4.122966e+001 2.000023e-001
      vertex   -5.482499e+001 4.122966e+001 1.380000e+001
    endloop
  endfacet
  facet normal 0.000000e+000 -1.000000e+000 0.000000e+000
    outer loop
      vertex   -5.482499e+001 4.122966e+001 1.380000e+001
      vertex   -5.282499e+001 4.122966e+001 2.000023e-001
      vertex   -5.282499e+001 4.122966e+001 1.380000e+001
    endloop
  endfacet
  facet normal -1.000000e+000 -0.000000e+000 -0.000000e+000
    outer loop
      vertex   -5.482499e+001 4.322966e+001 1.380000e+001
      vertex   -5.482499e+001 4.322966e+001 2.000023e-001
      vertex   -5.482499e+001 4.122966e+001 1.380000e+001
    endloop
  endfacet
  facet normal -1.000000e+000 -0.000000e+000 -0.000000e+000
    outer loop
      vertex   -5.482499e+001 4.122966e+001 1.380000e+001
      vertex   -5.482499e+001 4.322966e+001 2.000023e-001
      vertex   -5.482499e+001 4.122966e+001 2.000023e-001
    endloop
  endfacet
  facet normal -1.000000e+000 7.425310e-006 -1.694947e-006
    outer loop
      vertex   -5.282499e+001 4.474060e+001 6.819197e+000
      vertex   -5.282499e+001 4.322966e+001 2.000023e-001
      vertex   -5.282499e+001 4.472966e+001 7.000002e+000
    endloop
  endfacet
  facet normal -1.000000e+000 0.000000e+000 -0.000000e+000
    outer loop
      vertex   -5.282499e+001 4.474060e+001 6.819197e+000
      vertex   -5.282499e+001 4.477325e+001 6.641029e+000
      vertex   -5.282499e+001 4.322966e+001 2.000023e-001
    endloop
  endfacet
  facet normal -1.000000e+000 0.000000e+000 0.000000e+000
    outer loop
      vertex   -5.282499e+001 4.322966e+001 2.000023e-001
      vertex   -5.282499e+001 4.477325e+001 6.641029e+000
      vertex   -5.282499e+001 4.482714e+001 6.468095e+000
    endloop
  endfacet
  facet normal -1.000000e+000 -0.000000e+000 0.000000e+000
    outer loop
      vertex   -5.282499e+001 4.490148e+001 6.302918e+000
      vertex   -5.282499e+001 4.322966e+001 2.000023e-001
      vertex   -5.282499e+001 4.482714e+001 6.468095e+000
    endloop
  endfacet
  facet normal -1.000000e+000 0.000000e+000 -0.000000e+000
    outer loop
      vertex   -5.282499e+001 4.490148e+001 6.302918e+000
      vertex   -5.282499e+001 4.499519e+001 6.147905e+000
      vertex   -5.282499e+001 4.322966e+001 2.000023e-001
    endloop
  endfacet
  facet normal -1.000000e+000 0.000000e+000 0.000000e+000
    outer loop
      vertex   -5.282499e+001 4.322966e+001 2.000023e-001
      vertex   -5.282499e+001 4.499519e+001 6.147905e+000
      vertex   -5.282499e+001 4.510690e+001 6.005318e+000
    endloop
  endfacet
  facet normal -1.000000e+000 -0.000000e+000 0.000000e+000
    outer loop
      vertex   -5.282499e+001 4.523498e+001 5.877236e+000
      vertex   -5.282499e+001 4.322966e+001 2.000023e-001
      vertex   -5.282499e+001 4.510690e+001 6.005318e+000
    endloop
  endfacet
  facet normal -1.000000e+000 0.000000e+000 -0.000000e+000
    outer loop
      vertex   -5.282499e+001 4.523498e+001 5.877236e+000
      vertex   -5.282499e+001 4.537757e+001 5.765526e+000
      vertex   -5.282499e+001 4.322966e+001 2.000023e-001
    endloop
  endfacet
  facet normal -1.000000e+000 0.000000e+000 0.000000e+000
    outer loop
      vertex   -5.282499e+001 4.322966e+001 2.000023e-001
      vertex   -5.282499e+001 4.537757e+001 5.765526e+000
      vertex   -5.282499e+001 4.553258e+001 5.671818e+000
    endloop
  endfacet
  facet normal -1.000000e+000 -0.000000e+000 0.000000e+000
    outer loop
      vertex   -5.282499e+001 4.569776e+001 5.597478e+000
      vertex   -5.282499e+001 4.322966e+001 2.000023e-001
      vertex   -5.282499e+001 4.553258e+001 5.671818e+000
    endloop
  endfacet
  facet normal -1.000000e+000 0.000000e+000 -0.000000e+000
    outer loop
      vertex   -5.282499e+001 4.569776e+001 5.597478e+000
      vertex   -5.282499e+001 4.587069e+001 5.543590e+000
      vertex   -5.282499e+001 4.322966e+001 2.000023e-001
    endloop
  endfacet
  facet normal -1.000000e+000 0.000000e+000 0.000000e+000
    outer loop
      vertex   -5.282499e+001 4.322966e+001 2.000023e-001
      vertex   -5.282499e+001 4.587069e+001 5.543590e+000
      vertex   -5.282499e+001 4.604886e+001 5.510939e+000
    endloop
  endfacet
  facet normal -1.000000e+000 -0.000000e+000 0.000000e+000
    outer loop
      vertex   -5.282499e+001 4.622966e+001 5.500002e+000
      vertex   -5.282499e+001 4.322966e+001 2.000023e-001
      vertex   -5.282499e+001 4.604886e+001 5.510939e+000
    endloop
  endfacet
  facet normal -1.000000e+000 0.000000e+000 -0.000000e+000
    outer loop
      vertex   -5.282499e+001 4.622966e+001 5.500002e+000
      vertex   -5.282499e+001 4.641047e+001 5.510939e+000
      vertex   -5.282499e+001 4.322966e+001 2.000023e-001
    endloop
  endfacet
  facet normal -1.000000e+000 0.000000e+000 0.000000e+000
    outer loop
      vertex   -5.282499e+001 4.322966e+001 2.000023e-001
      vertex   -5.282499e+001 4.641047e+001 5.510939e+000
      vertex   -5.282499e+001 4.658864e+001 5.543590e+000
    endloop
  endfacet
  facet normal -1.000000e+000 -0.000000e+000 0.000000e+000
    outer loop
      vertex   -5.282499e+001 4.676157e+001 5.597478e+000
      vertex   -5.282499e+001 4.322966e+001 2.000023e-001
      vertex   -5.282499e+001 4.658864e+001 5.543590e+000
    endloop
  endfacet
  facet normal -1.000000e+000 0.000000e+000 -0.000000e+000
    outer loop
      vertex   -5.282499e+001 4.676157e+001 5.597478e+000
      vertex   -5.282499e+001 4.692675e+001 5.671818e+000
      vertex   -5.282499e+001 4.322966e+001 2.000023e-001
    endloop
  endfacet
  facet normal -1.000000e+000 2.732856e-016 -1.846482e-016
    outer loop
      vertex   -5.282499e+001 4.322966e+001 2.000023e-001
      vertex   -5.282499e+001 4.692675e+001 5.671818e+000
      vertex   -5.282499e+001 6.922966e+001 2.000023e-001
    endloop
  endfacet
  facet normal -1.000000e+000 2.266166e-016 -3.748696e-016
    outer loop
      vertex   -5.282499e+001 6.922966e+001 2.000023e-001
      vertex   -5.282499e+001 4.692675e+001 5.671818e+000
      vertex   -5.282499e+001 4.708176e+001 5.765526e+000
    endloop
  endfacet
  facet normal -1.000000e+000 2.429059e-016 -3.100465e-016
    outer loop
      vertex   -5.282499e+001 4.722435e+001 5.877236e+000
      vertex   -5.282499e+001 6.922966e+001 2.000023e-001
      vertex   -5.282499e+001 4.708176e+001 5.765526e+000
    endloop
  endfacet
  facet normal -1.000000e+000 2.566753e-016 -2.566753e-016
    outer loop
      vertex   -5.282499e+001 4.722435e+001 5.877236e+000
      vertex   -5.282499e+001 4.735243e+001 6.005318e+000
      vertex   -5.282499e+001 6.922966e+001 2.000023e-001
    endloop
  endfacet
  facet normal -1.000000e+000 2.688862e-016 -2.106589e-016
    outer loop
      vertex   -5.282499e+001 6.922966e+001 2.000023e-001
      vertex   -5.282499e+001 4.735243e+001 6.005318e+000
      vertex   -5.282499e+001 4.746414e+001 6.147905e+000
    endloop
  endfacet
  facet normal -1.000000e+000 2.801697e-016 -1.693685e-016
    outer loop
      vertex   -5.282499e+001 4.755785e+001 6.302918e+000
      vertex   -5.282499e+001 6.922966e+001 2.000023e-001
      vertex   -5.282499e+001 4.746414e+001 6.147905e+000
    endloop
  endfacet
  facet normal -1.000000e+000 2.909852e-016 -1.309618e-016
    outer loop
      vertex   -5.282499e+001 4.755785e+001 6.302918e+000
      vertex   -5.282499e+001 4.763219e+001 6.468095e+000
      vertex   -5.282499e+001 6.922966e+001 2.000023e-001
    endloop
  endfacet
  facet normal -1.000000e+000 3.017078e-016 -9.401595e-017
    outer loop
      vertex   -5.282499e+001 6.922966e+001 2.000023e-001
      vertex   -5.282499e+001 4.763219e+001 6.468095e+000
      vertex   -5.282499e+001 4.768608e+001 6.641029e+000
    endloop
  endfacet
  facet normal -1.000000e+000 3.126845e-016 -5.730157e-017
    outer loop
      vertex   -5.282499e+001 4.771873e+001 6.819197e+000
      vertex   -5.282499e+001 6.922966e+001 2.000023e-001
      vertex   -5.282499e+001 4.768608e+001 6.641029e+000
    endloop
  endfacet
  facet normal -1.000000e+000 3.242811e-016 -1.961539e-017
    outer loop
      vertex   -5.282499e+001 4.771873e+001 6.819197e+000
      vertex   -5.282499e+001 4.772966e+001 7.000002e+000
      vertex   -5.282499e+001 6.922966e+001 2.000023e-001
    endloop
  endfacet
  facet normal -1.000000e+000 3.304850e-016 0.000000e+000
    outer loop
      vertex   -5.282499e+001 6.922966e+001 2.000023e-001
      vertex   -5.282499e+001 4.772966e+001 7.000002e+000
      vertex   -5.282499e+001 6.922966e+001 1.380000e+001
    endloop
  endfacet
  facet normal -1.000000e+000 3.242811e-016 1.961539e-017
    outer loop
      vertex   -5.282499e+001 6.922966e+001 1.380000e+001
      vertex   -5.282499e+001 4.772966e+001 7.000002e+000
      vertex   -5.282499e+001 4.771873e+001 7.180807e+000
    endloop
  endfacet
  facet normal -1.000000e+000 3.126845e-016 5.730157e-017
    outer loop
      vertex   -5.282499e+001 4.768608e+001 7.358976e+000
      vertex   -5.282499e+001 6.922966e+001 1.380000e+001
      vertex   -5.282499e+001 4.771873e+001 7.180807e+000
    endloop
  endfacet
  facet normal -1.000000e+000 3.017078e-016 9.401595e-017
    outer loop
      vertex   -5.282499e+001 4.768608e+001 7.358976e+000
      vertex   -5.282499e+001 4.763219e+001 7.531910e+000
      vertex   -5.282499e+001 6.922966e+001 1.380000e+001
    endloop
  endfacet
  facet normal -1.000000e+000 2.909852e-016 1.309618e-016
    outer loop
      vertex   -5.282499e+001 6.922966e+001 1.380000e+001
      vertex   -5.282499e+001 4.763219e+001 7.531910e+000
      vertex   -5.282499e+001 4.755785e+001 7.697087e+000
    endloop
  endfacet
  facet normal -1.000000e+000 2.801697e-016 1.693685e-016
    outer loop
      vertex   -5.282499e+001 4.746414e+001 7.852099e+000
      vertex   -5.282499e+001 6.922966e+001 1.380000e+001
      vertex   -5.282499e+001 4.755785e+001 7.697087e+000
    endloop
  endfacet
  facet normal -1.000000e+000 2.688862e-016 2.106589e-016
    outer loop
      vertex   -5.282499e+001 4.746414e+001 7.852099e+000
      vertex   -5.282499e+001 4.735243e+001 7.994686e+000
      vertex   -5.282499e+001 6.922966e+001 1.380000e+001
    endloop
  endfacet
  facet normal -1.000000e+000 2.566753e-016 2.566753e-016
    outer loop
      vertex   -5.282499e+001 6.922966e+001 1.380000e+001
      vertex   -5.282499e+001 4.735243e+001 7.994686e+000
      vertex   -5.282499e+001 4.722435e+001 8.122768e+000
    endloop
  endfacet
  facet normal -1.000000e+000 2.429059e-016 3.100465e-016
    outer loop
      vertex   -5.282499e+001 4.708176e+001 8.234478e+000
      vertex   -5.282499e+001 6.922966e+001 1.380000e+001
      vertex   -5.282499e+001 4.722435e+001 8.122768e+000
    endloop
  endfacet
  facet normal -1.000000e+000 2.266166e-016 3.748696e-016
    outer loop
      vertex   -5.282499e+001 4.708176e+001 8.234478e+000
      vertex   -5.282499e+001 4.692675e+001 8.328186e+000
      vertex   -5.282499e+001 6.922966e+001 1.380000e+001
    endloop
  endfacet
  facet normal -1.000000e+000 2.732856e-016 1.846482e-016
    outer loop
      vertex   -5.282499e+001 6.922966e+001 1.380000e+001
      vertex   -5.282499e+001 4.692675e+001 8.328186e+000
      vertex   -5.282499e+001 4.322966e+001 1.380000e+001
    endloop
  endfacet
  facet normal -1.000000e+000 -0.000000e+000 -0.000000e+000
    outer loop
      vertex   -5.282499e+001 4.322966e+001 1.380000e+001
      vertex   -5.282499e+001 4.692675e+001 8.328186e+000
      vertex   -5.282499e+001 4.676157e+001 8.402527e+000
    endloop
  endfacet
  facet normal -1.000000e+000 0.000000e+000 0.000000e+000
    outer loop
      vertex   -5.282499e+001 4.658864e+001 8.456415e+000
      vertex   -5.282499e+001 4.322966e+001 1.380000e+001
      vertex   -5.282499e+001 4.676157e+001 8.402527e+000
    endloop
  endfacet
  facet normal -1.000000e+000 0.000000e+000 0.000000e+000
    outer loop
      vertex   -5.282499e+001 4.658864e+001 8.456415e+000
      vertex   -5.282499e+001 4.641047e+001 8.489066e+000
      vertex   -5.282499e+001 4.322966e+001 1.380000e+001
    endloop
  endfacet
  facet normal -1.000000e+000 -0.000000e+000 -0.000000e+000
    outer loop
      vertex   -5.282499e+001 4.322966e+001 1.380000e+001
      vertex   -5.282499e+001 4.641047e+001 8.489066e+000
      vertex   -5.282499e+001 4.622966e+001 8.500002e+000
    endloop
  endfacet
  facet normal -1.000000e+000 0.000000e+000 0.000000e+000
    outer loop
      vertex   -5.282499e+001 4.604886e+001 8.489066e+000
      vertex   -5.282499e+001 4.322966e+001 1.380000e+001
      vertex   -5.282499e+001 4.622966e+001 8.500002e+000
    endloop
  endfacet
  facet normal -1.000000e+000 -0.000000e+000 0.000000e+000
    outer loop
      vertex   -5.282499e+001 4.604886e+001 8.489066e+000
      vertex   -5.282499e+001 4.587069e+001 8.456415e+000
      vertex   -5.282499e+001 4.322966e+001 1.380000e+001
    endloop
  endfacet
  facet normal -1.000000e+000 0.000000e+000 -0.000000e+000
    outer loop
      vertex   -5.282499e+001 4.322966e+001 1.380000e+001
      vertex   -5.282499e+001 4.587069e+001 8.456415e+000
      vertex   -5.282499e+001 4.569776e+001 8.402527e+000
    endloop
  endfacet
  facet normal -1.000000e+000 0.000000e+000 0.000000e+000
    outer loop
      vertex   -5.282499e+001 4.553258e+001 8.328186e+000
      vertex   -5.282499e+001 4.322966e+001 1.380000e+001
      vertex   -5.282499e+001 4.569776e+001 8.402527e+000
    endloop
  endfacet
  facet normal -1.000000e+000 -0.000000e+000 0.000000e+000
    outer loop
      vertex   -5.282499e+001 4.553258e+001 8.328186e+000
      vertex   -5.282499e+001 4.537757e+001 8.234478e+000
      vertex   -5.282499e+001 4.322966e+001 1.380000e+001
    endloop
  endfacet
  facet normal -1.000000e+000 0.000000e+000 -0.000000e+000
    outer loop
      vertex   -5.282499e+001 4.322966e+001 1.380000e+001
      vertex   -5.282499e+001 4.537757e+001 8.234478e+000
      vertex   -5.282499e+001 4.523498e+001 8.122768e+000
    endloop
  endfacet
  facet normal -1.000000e+000 0.000000e+000 0.000000e+000
    outer loop
      vertex   -5.282499e+001 4.510690e+001 7.994686e+000
      vertex   -5.282499e+001 4.322966e+001 1.380000e+001
      vertex   -5.282499e+001 4.523498e+001 8.122768e+000
    endloop
  endfacet
  facet normal -1.000000e+000 -0.000000e+000 0.000000e+000
    outer loop
      vertex   -5.282499e+001 4.510690e+001 7.994686e+000
      vertex   -5.282499e+001 4.499519e+001 7.852099e+000
      vertex   -5.282499e+001 4.322966e+001 1.380000e+001
    endloop
  endfacet
  facet normal -1.000000e+000 0.000000e+000 -0.000000e+000
    outer loop
      vertex   -5.282499e+001 4.322966e+001 1.380000e+001
      vertex   -5.282499e+001 4.499519e+001 7.852099e+000
      vertex   -5.282499e+001 4.490148e+001 7.697087e+000
    endloop
  endfacet
  facet normal -1.000000e+000 0.000000e+000 0.000000e+000
    outer loop
      vertex   -5.282499e+001 4.482714e+001 7.531910e+000
      vertex   -5.282499e+001 4.322966e+001 1.380000e+001
      vertex   -5.282499e+001 4.490148e+001 7.697087e+000
    endloop
  endfacet
  facet normal -1.000000e+000 -0.000000e+000 0.000000e+000
    outer loop
      vertex   -5.282499e+001 4.482714e+001 7.531910e+000
      vertex   -5.282499e+001 4.477325e+001 7.358976e+000
      vertex   -5.282499e+001 4.322966e+001 1.380000e+001
    endloop
  endfacet
  facet normal -1.000000e+000 0.000000e+000 -0.000000e+000
    outer loop
      vertex   -5.282499e+001 4.322966e+001 1.380000e+001
      vertex   -5.282499e+001 4.477325e+001 7.358976e+000
      vertex   -5.282499e+001 4.474060e+001 7.180807e+000
    endloop
  endfacet
  facet normal -1.000000e+000 7.425310e-006 1.694947e-006
    outer loop
      vertex   -5.282499e+001 4.472966e+001 7.000002e+000
      vertex   -5.282499e+001 4.322966e+001 1.380000e+001
      vertex   -5.282499e+001 4.474060e+001 7.180807e+000
    endloop
  endfacet
  facet normal -1.000000e+000 -2.584419e-007 0.000000e+000
    outer loop
      vertex   -5.282499e+001 4.472966e+001 7.000002e+000
      vertex   -5.282499e+001 4.322966e+001 2.000023e-001
      vertex   -5.282499e+001 4.322966e+001 1.380000e+001
    endloop
  endfacet
  facet normal 0.000000e+000 6.037850e-002 -9.981756e-001
    outer loop
      vertex   -5.082499e+001 4.604886e+001 8.489066e+000
      vertex   -5.282499e+001 4.604886e+001 8.489066e+000
      vertex   -5.082499e+001 4.622966e+001 8.500002e+000
    endloop
  endfacet
  facet normal 0.000000e+000 1.802550e-001 -9.836199e-001
    outer loop
      vertex   -5.082499e+001 4.604886e+001 8.489066e+000
      vertex   -5.282499e+001 4.587069e+001 8.456415e+000
      vertex   -5.282499e+001 4.604886e+001 8.489066e+000
    endloop
  endfacet
  facet normal 0.000000e+000 1.802550e-001 -9.836199e-001
    outer loop
      vertex   -5.082499e+001 4.604886e+001 8.489066e+000
      vertex   -5.082499e+001 4.587069e+001 8.456415e+000
      vertex   -5.282499e+001 4.587069e+001 8.456415e+000
    endloop
  endfacet
  facet normal 0.000000e+000 2.975031e-001 -9.547209e-001
    outer loop
      vertex   -5.282499e+001 4.587069e+001 8.456415e+000
      vertex   -5.082499e+001 4.587069e+001 8.456415e+000
      vertex   -5.282499e+001 4.569776e+001 8.402527e+000
    endloop
  endfacet
  facet normal 0.000000e+000 2.975031e-001 -9.547209e-001
    outer loop
      vertex   -5.282499e+001 4.569776e+001 8.402527e+000
      vertex   -5.082499e+001 4.587069e+001 8.456415e+000
      vertex   -5.082499e+001 4.569776e+001 8.402527e+000
    endloop
  endfacet
  facet normal 1.455695e-015 4.104128e-001 -9.118998e-001
    outer loop
      vertex   -5.282499e+001 4.553258e+001 8.328186e+000
      vertex   -5.082499e+001 4.569776e+001 8.402527e+000
      vertex   -5.082499e+001 4.553258e+001 8.328186e+000
    endloop
  endfacet
  facet normal 0.000000e+000 5.173378e-001 -8.557813e-001
    outer loop
      vertex   -5.282499e+001 4.537757e+001 8.234478e+000
      vertex   -5.082499e+001 4.553258e+001 8.328186e+000
      vertex   -5.082499e+001 4.537757e+001 8.234478e+000
    endloop
  endfacet
  facet normal -6.991165e-016 6.167189e-001 -7.871835e-001
    outer loop
      vertex   -5.282499e+001 4.523498e+001 8.122768e+000
      vertex   -5.082499e+001 4.537757e+001 8.234478e+000
      vertex   -5.082499e+001 4.523498e+001 8.122768e+000
    endloop
  endfacet
  facet normal -6.225010e-016 7.071068e-001 -7.071068e-001
    outer loop
      vertex   -5.282499e+001 4.510690e+001 7.994686e+000
      vertex   -5.082499e+001 4.523498e+001 8.122768e+000
      vertex   -5.082499e+001 4.510690e+001 7.994686e+000
    endloop
  endfacet
  facet normal 0.000000e+000 7.871835e-001 -6.167189e-001
    outer loop
      vertex   -5.282499e+001 4.499519e+001 7.852099e+000
      vertex   -5.082499e+001 4.510690e+001 7.994686e+000
      vertex   -5.082499e+001 4.499519e+001 7.852099e+000
    endloop
  endfacet
  facet normal 2.580985e-015 8.557813e-001 -5.173378e-001
    outer loop
      vertex   -5.282499e+001 4.490148e+001 7.697087e+000
      vertex   -5.082499e+001 4.499519e+001 7.852099e+000
      vertex   -5.082499e+001 4.490148e+001 7.697087e+000
    endloop
  endfacet
  facet normal -1.819618e-016 9.118998e-001 -4.104128e-001
    outer loop
      vertex   -5.282499e+001 4.482714e+001 7.531910e+000
      vertex   -5.082499e+001 4.490148e+001 7.697087e+000
      vertex   -5.082499e+001 4.482714e+001 7.531910e+000
    endloop
  endfacet
  facet normal -1.340771e-016 9.547209e-001 -2.975031e-001
    outer loop
      vertex   -5.282499e+001 4.477325e+001 7.358976e+000
      vertex   -5.082499e+001 4.482714e+001 7.531910e+000
      vertex   -5.082499e+001 4.477325e+001 7.358976e+000
    endloop
  endfacet
  facet normal -1.604137e-016 9.836199e-001 -1.802550e-001
    outer loop
      vertex   -5.282499e+001 4.474060e+001 7.180807e+000
      vertex   -5.082499e+001 4.477325e+001 7.358976e+000
      vertex   -5.082499e+001 4.474060e+001 7.180807e+000
    endloop
  endfacet
  facet normal -5.362688e-017 9.981756e-001 -6.037850e-002
    outer loop
      vertex   -5.082499e+001 4.472966e+001 7.000002e+000
      vertex   -5.282499e+001 4.474060e+001 7.180807e+000
      vertex   -5.082499e+001 4.474060e+001 7.180807e+000
    endloop
  endfacet
  facet normal 7.092463e-015 9.981756e-001 -6.037850e-002
    outer loop
      vertex   -5.082499e+001 4.472966e+001 7.000002e+000
      vertex   -5.282499e+001 4.472966e+001 7.000002e+000
      vertex   -5.282499e+001 4.474060e+001 7.180807e+000
    endloop
  endfacet
  facet normal 7.092919e-015 9.981756e-001 6.037850e-002
    outer loop
      vertex   -5.082499e+001 4.472966e+001 7.000002e+000
      vertex   -5.282499e+001 4.474060e+001 6.819197e+000
      vertex   -5.282499e+001 4.472966e+001 7.000002e+000
    endloop
  endfacet
  facet normal 2.681344e-017 9.981756e-001 6.037850e-002
    outer loop
      vertex   -5.082499e+001 4.472966e+001 7.000002e+000
      vertex   -5.082499e+001 4.474060e+001 6.819197e+000
      vertex   -5.282499e+001 4.474060e+001 6.819197e+000
    endloop
  endfacet
  facet normal 8.004932e-017 9.836199e-001 1.802550e-001
    outer loop
      vertex   -5.282499e+001 4.474060e+001 6.819197e+000
      vertex   -5.082499e+001 4.474060e+001 6.819197e+000
      vertex   -5.282499e+001 4.477325e+001 6.641029e+000
    endloop
  endfacet
  facet normal 0.000000e+000 9.836199e-001 1.802550e-001
    outer loop
      vertex   -5.282499e+001 4.477325e+001 6.641029e+000
      vertex   -5.082499e+001 4.474060e+001 6.819197e+000
      vertex   -5.082499e+001 4.477325e+001 6.641029e+000
    endloop
  endfacet
  facet normal 1.292887e-016 9.547209e-001 2.975031e-001
    outer loop
      vertex   -5.282499e+001 4.482714e+001 6.468095e+000
      vertex   -5.082499e+001 4.477325e+001 6.641029e+000
      vertex   -5.082499e+001 4.482714e+001 6.468095e+000
    endloop
  endfacet
  facet normal -3.241794e-015 9.118998e-001 4.104128e-001
    outer loop
      vertex   -5.282499e+001 4.490148e+001 6.302918e+000
      vertex   -5.082499e+001 4.482714e+001 6.468095e+000
      vertex   -5.082499e+001 4.490148e+001 6.302918e+000
    endloop
  endfacet
  facet normal 0.000000e+000 8.557813e-001 5.173378e-001
    outer loop
      vertex   -5.282499e+001 4.499519e+001 6.147905e+000
      vertex   -5.082499e+001 4.490148e+001 6.302918e+000
      vertex   -5.082499e+001 4.499519e+001 6.147905e+000
    endloop
  endfacet
  facet normal 0.000000e+000 7.871835e-001 6.167189e-001
    outer loop
      vertex   -5.282499e+001 4.510690e+001 6.005318e+000
      vertex   -5.082499e+001 4.499519e+001 6.147905e+000
      vertex   -5.082499e+001 4.510690e+001 6.005318e+000
    endloop
  endfacet
  facet normal 0.000000e+000 7.071068e-001 7.071068e-001
    outer loop
      vertex   -5.282499e+001 4.523498e+001 5.877236e+000
      vertex   -5.082499e+001 4.510690e+001 6.005318e+000
      vertex   -5.082499e+001 4.523498e+001 5.877236e+000
    endloop
  endfacet
  facet normal 0.000000e+000 6.167189e-001 7.871835e-001
    outer loop
      vertex   -5.282499e+001 4.537757e+001 5.765526e+000
      vertex   -5.082499e+001 4.523498e+001 5.877236e+000
      vertex   -5.082499e+001 4.537757e+001 5.765526e+000
    endloop
  endfacet
  facet normal 0.000000e+000 5.173378e-001 8.557813e-001
    outer loop
      vertex   -5.282499e+001 4.553258e+001 5.671818e+000
      vertex   -5.082499e+001 4.537757e+001 5.765526e+000
      vertex   -5.082499e+001 4.553258e+001 5.671818e+000
    endloop
  endfacet
  facet normal 0.000000e+000 4.104128e-001 9.118998e-001
    outer loop
      vertex   -5.282499e+001 4.569776e+001 5.597478e+000
      vertex   -5.082499e+001 4.553258e+001 5.671818e+000
      vertex   -5.082499e+001 4.569776e+001 5.597478e+000
    endloop
  endfacet
  facet normal 0.000000e+000 2.975031e-001 9.547209e-001
    outer loop
      vertex   -5.282499e+001 4.587069e+001 5.543590e+000
      vertex   -5.082499e+001 4.569776e+001 5.597478e+000
      vertex   -5.082499e+001 4.587069e+001 5.543590e+000
    endloop
  endfacet
  facet normal 0.000000e+000 1.802550e-001 9.836199e-001
    outer loop
      vertex   -5.282499e+001 4.604886e+001 5.510939e+000
      vertex   -5.082499e+001 4.587069e+001 5.543590e+000
      vertex   -5.082499e+001 4.604886e+001 5.510939e+000
    endloop
  endfacet
  facet normal 0.000000e+000 6.037850e-002 9.981756e-001
    outer loop
      vertex   -5.282499e+001 4.622966e+001 5.500002e+000
      vertex   -5.082499e+001 4.604886e+001 5.510939e+000
      vertex   -5.082499e+001 4.622966e+001 5.500002e+000
    endloop
  endfacet
  facet normal 0.000000e+000 -6.037850e-002 9.981756e-001
    outer loop
      vertex   -5.282499e+001 4.641047e+001 5.510939e+000
      vertex   -5.082499e+001 4.622966e+001 5.500002e+000
      vertex   -5.082499e+001 4.641047e+001 5.510939e+000
    endloop
  endfacet
  facet normal 0.000000e+000 -1.802550e-001 9.836199e-001
    outer loop
      vertex   -5.282499e+001 4.658864e+001 5.543590e+000
      vertex   -5.082499e+001 4.641047e+001 5.510939e+000
      vertex   -5.082499e+001 4.658864e+001 5.543590e+000
    endloop
  endfacet
  facet normal 0.000000e+000 -2.975031e-001 9.547209e-001
    outer loop
      vertex   -5.282499e+001 4.676157e+001 5.597478e+000
      vertex   -5.082499e+001 4.658864e+001 5.543590e+000
      vertex   -5.082499e+001 4.676157e+001 5.597478e+000
    endloop
  endfacet
  facet normal 0.000000e+000 -4.104128e-001 9.118998e-001
    outer loop
      vertex   -5.282499e+001 4.692675e+001 5.671818e+000
      vertex   -5.082499e+001 4.676157e+001 5.597478e+000
      vertex   -5.082499e+001 4.692675e+001 5.671818e+000
    endloop
  endfacet
  facet normal 0.000000e+000 -5.173378e-001 8.557813e-001
    outer loop
      vertex   -5.282499e+001 4.708176e+001 5.765526e+000
      vertex   -5.082499e+001 4.692675e+001 5.671818e+000
      vertex   -5.082499e+001 4.708176e+001 5.765526e+000
    endloop
  endfacet
  facet normal 0.000000e+000 -6.167189e-001 7.871835e-001
    outer loop
      vertex   -5.282499e+001 4.722435e+001 5.877236e+000
      vertex   -5.082499e+001 4.708176e+001 5.765526e+000
      vertex   -5.082499e+001 4.722435e+001 5.877236e+000
    endloop
  endfacet
  facet normal 0.000000e+000 -7.071068e-001 7.071068e-001
    outer loop
      vertex   -5.282499e+001 4.735243e+001 6.005318e+000
      vertex   -5.082499e+001 4.722435e+001 5.877236e+000
      vertex   -5.082499e+001 4.735243e+001 6.005318e+000
    endloop
  endfacet
  facet normal 0.000000e+000 -7.871835e-001 6.167189e-001
    outer loop
      vertex   -5.282499e+001 4.746414e+001 6.147905e+000
      vertex   -5.082499e+001 4.735243e+001 6.005318e+000
      vertex   -5.082499e+001 4.746414e+001 6.147905e+000
    endloop
  endfacet
  facet normal 0.000000e+000 -8.557813e-001 5.173378e-001
    outer loop
      vertex   -5.282499e+001 4.755785e+001 6.302918e+000
      vertex   -5.082499e+001 4.746414e+001 6.147905e+000
      vertex   -5.082499e+001 4.755785e+001 6.302918e+000
    endloop
  endfacet
  facet normal -1.819618e-016 -9.118998e-001 4.104128e-001
    outer loop
      vertex   -5.282499e+001 4.763219e+001 6.468095e+000
      vertex   -5.082499e+001 4.755785e+001 6.302918e+000
      vertex   -5.082499e+001 4.763219e+001 6.468095e+000
    endloop
  endfacet
  facet normal -1.340771e-016 -9.547209e-001 2.975031e-001
    outer loop
      vertex   -5.282499e+001 4.768608e+001 6.641029e+000
      vertex   -5.082499e+001 4.763219e+001 6.468095e+000
      vertex   -5.082499e+001 4.768608e+001 6.641029e+000
    endloop
  endfacet
  facet normal -7.900974e-017 -9.836199e-001 1.802550e-001
    outer loop
      vertex   -5.282499e+001 4.771873e+001 6.819197e+000
      vertex   -5.082499e+001 4.768608e+001 6.641029e+000
      vertex   -5.082499e+001 4.771873e+001 6.819197e+000
    endloop
  endfacet
  facet normal 0.000000e+000 -9.981756e-001 6.037850e-002
    outer loop
      vertex   -5.282499e+001 4.772966e+001 7.000002e+000
      vertex   -5.082499e+001 4.771873e+001 6.819197e+000
      vertex   -5.082499e+001 4.772966e+001 7.000002e+000
    endloop
  endfacet
  facet normal 0.000000e+000 -9.981756e-001 -6.037850e-002
    outer loop
      vertex   -5.282499e+001 4.771873e+001 7.180807e+000
      vertex   -5.082499e+001 4.772966e+001 7.000002e+000
      vertex   -5.082499e+001 4.771873e+001 7.180807e+000
    endloop
  endfacet
  facet normal 0.000000e+000 -9.836199e-001 -1.802550e-001
    outer loop
      vertex   -5.282499e+001 4.768608e+001 7.358976e+000
      vertex   -5.082499e+001 4.771873e+001 7.180807e+000
      vertex   -5.082499e+001 4.768608e+001 7.358976e+000
    endloop
  endfacet
  facet normal 0.000000e+000 -9.547209e-001 -2.975031e-001
    outer loop
      vertex   -5.282499e+001 4.763219e+001 7.531910e+000
      vertex   -5.082499e+001 4.768608e+001 7.358976e+000
      vertex   -5.082499e+001 4.763219e+001 7.531910e+000
    endloop
  endfacet
  facet normal 0.000000e+000 -9.118998e-001 -4.104128e-001
    outer loop
      vertex   -5.282499e+001 4.755785e+001 7.697087e+000
      vertex   -5.082499e+001 4.763219e+001 7.531910e+000
      vertex   -5.082499e+001 4.755785e+001 7.697087e+000
    endloop
  endfacet
  facet normal 0.000000e+000 -8.557813e-001 -5.173378e-001
    outer loop
      vertex   -5.282499e+001 4.746414e+001 7.852099e+000
      vertex   -5.082499e+001 4.755785e+001 7.697087e+000
      vertex   -5.082499e+001 4.746414e+001 7.852099e+000
    endloop
  endfacet
  facet normal 2.681543e-016 -7.871835e-001 -6.167189e-001
    outer loop
      vertex   -5.282499e+001 4.735243e+001 7.994686e+000
      vertex   -5.082499e+001 4.746414e+001 7.852099e+000
      vertex   -5.082499e+001 4.735243e+001 7.994686e+000
    endloop
  endfacet
  facet normal 0.000000e+000 -7.071068e-001 -7.071068e-001
    outer loop
      vertex   -5.282499e+001 4.722435e+001 8.122768e+000
      vertex   -5.082499e+001 4.735243e+001 7.994686e+000
      vertex   -5.082499e+001 4.722435e+001 8.122768e+000
    endloop
  endfacet
  facet normal 0.000000e+000 -6.167189e-001 -7.871835e-001
    outer loop
      vertex   -5.282499e+001 4.708176e+001 8.234478e+000
      vertex   -5.082499e+001 4.722435e+001 8.122768e+000
      vertex   -5.082499e+001 4.708176e+001 8.234478e+000
    endloop
  endfacet
  facet normal -1.838772e-015 -5.173378e-001 -8.557813e-001
    outer loop
      vertex   -5.282499e+001 4.692675e+001 8.328186e+000
      vertex   -5.082499e+001 4.708176e+001 8.234478e+000
      vertex   -5.082499e+001 4.692675e+001 8.328186e+000
    endloop
  endfacet
  facet normal 0.000000e+000 -4.104128e-001 -9.118998e-001
    outer loop
      vertex   -5.282499e+001 4.676157e+001 8.402527e+000
      vertex   -5.082499e+001 4.692675e+001 8.328186e+000
      vertex   -5.082499e+001 4.676157e+001 8.402527e+000
    endloop
  endfacet
  facet normal 0.000000e+000 -2.975031e-001 -9.547209e-001
    outer loop
      vertex   -5.282499e+001 4.658864e+001 8.456415e+000
      vertex   -5.082499e+001 4.676157e+001 8.402527e+000
      vertex   -5.082499e+001 4.658864e+001 8.456415e+000
    endloop
  endfacet
  facet normal 0.000000e+000 -1.802550e-001 -9.836199e-001
    outer loop
      vertex   -5.282499e+001 4.641047e+001 8.489066e+000
      vertex   -5.082499e+001 4.658864e+001 8.456415e+000
      vertex   -5.082499e+001 4.641047e+001 8.489066e+000
    endloop
  endfacet
  facet normal -8.858668e-016 -6.037850e-002 -9.981756e-001
    outer loop
      vertex   -5.282499e+001 4.622966e+001 8.500002e+000
      vertex   -5.082499e+001 4.641047e+001 8.489066e+000
      vertex   -5.082499e+001 4.622966e+001 8.500002e+000
    endloop
  endfacet
  facet normal -8.865580e-016 6.037850e-002 -9.981756e-001
    outer loop
      vertex   -5.282499e+001 4.604886e+001 8.489066e+000
      vertex   -5.282499e+001 4.622966e+001 8.500002e+000
      vertex   -5.082499e+001 4.622966e+001 8.500002e+000
    endloop
  endfacet
  facet normal 0.000000e+000 4.104128e-001 -9.118998e-001
    outer loop
      vertex   -5.282499e+001 4.569776e+001 8.402527e+000
      vertex   -5.082499e+001 4.569776e+001 8.402527e+000
      vertex   -5.282499e+001 4.553258e+001 8.328186e+000
    endloop
  endfacet
  facet normal 1.837953e-015 5.173378e-001 -8.557813e-001
    outer loop
      vertex   -5.282499e+001 4.553258e+001 8.328186e+000
      vertex   -5.082499e+001 4.553258e+001 8.328186e+000
      vertex   -5.282499e+001 4.537757e+001 8.234478e+000
    endloop
  endfacet
  facet normal 0.000000e+000 6.167189e-001 -7.871835e-001
    outer loop
      vertex   -5.282499e+001 4.537757e+001 8.234478e+000
      vertex   -5.082499e+001 4.537757e+001 8.234478e+000
      vertex   -5.282499e+001 4.523498e+001 8.122768e+000
    endloop
  endfacet
  facet normal -6.280370e-016 7.071068e-001 -7.071068e-001
    outer loop
      vertex   -5.282499e+001 4.523498e+001 8.122768e+000
      vertex   -5.082499e+001 4.523498e+001 8.122768e+000
      vertex   -5.282499e+001 4.510690e+001 7.994686e+000
    endloop
  endfacet
  facet normal -5.477564e-016 7.871835e-001 -6.167189e-001
    outer loop
      vertex   -5.282499e+001 4.510690e+001 7.994686e+000
      vertex   -5.082499e+001 4.510690e+001 7.994686e+000
      vertex   -5.282499e+001 4.499519e+001 7.852099e+000
    endloop
  endfacet
  facet normal 0.000000e+000 8.557813e-001 -5.173378e-001
    outer loop
      vertex   -5.282499e+001 4.499519e+001 7.852099e+000
      vertex   -5.082499e+001 4.499519e+001 7.852099e+000
      vertex   -5.282499e+001 4.490148e+001 7.697087e+000
    endloop
  endfacet
  facet normal 2.875199e-015 9.118998e-001 -4.104128e-001
    outer loop
      vertex   -5.282499e+001 4.490148e+001 7.697087e+000
      vertex   -5.082499e+001 4.490148e+001 7.697087e+000
      vertex   -5.282499e+001 4.482714e+001 7.531910e+000
    endloop
  endfacet
  facet normal -1.321179e-016 9.547209e-001 -2.975031e-001
    outer loop
      vertex   -5.282499e+001 4.482714e+001 7.531910e+000
      vertex   -5.082499e+001 4.482714e+001 7.531910e+000
      vertex   -5.282499e+001 4.477325e+001 7.358976e+000
    endloop
  endfacet
  facet normal -8.004932e-017 9.836199e-001 -1.802550e-001
    outer loop
      vertex   -5.282499e+001 4.477325e+001 7.358976e+000
      vertex   -5.082499e+001 4.477325e+001 7.358976e+000
      vertex   -5.282499e+001 4.474060e+001 7.180807e+000
    endloop
  endfacet
  facet normal -0.000000e+000 9.547209e-001 2.975031e-001
    outer loop
      vertex   -5.282499e+001 4.477325e+001 6.641029e+000
      vertex   -5.082499e+001 4.477325e+001 6.641029e+000
      vertex   -5.282499e+001 4.482714e+001 6.468095e+000
    endloop
  endfacet
  facet normal 1.822599e-016 9.118998e-001 4.104128e-001
    outer loop
      vertex   -5.282499e+001 4.482714e+001 6.468095e+000
      vertex   -5.082499e+001 4.482714e+001 6.468095e+000
      vertex   -5.282499e+001 4.490148e+001 6.302918e+000
    endloop
  endfacet
  facet normal -3.040346e-015 8.557813e-001 5.173378e-001
    outer loop
      vertex   -5.282499e+001 4.490148e+001 6.302918e+000
      vertex   -5.082499e+001 4.490148e+001 6.302918e+000
      vertex   -5.282499e+001 4.499519e+001 6.147905e+000
    endloop
  endfacet
  facet normal -0.000000e+000 7.871835e-001 6.167189e-001
    outer loop
      vertex   -5.282499e+001 4.499519e+001 6.147905e+000
      vertex   -5.082499e+001 4.499519e+001 6.147905e+000
      vertex   -5.282499e+001 4.510690e+001 6.005318e+000
    endloop
  endfacet
  facet normal -0.000000e+000 7.071068e-001 7.071068e-001
    outer loop
      vertex   -5.282499e+001 4.510690e+001 6.005318e+000
      vertex   -5.082499e+001 4.510690e+001 6.005318e+000
      vertex   -5.282499e+001 4.523498e+001 5.877236e+000
    endloop
  endfacet
  facet normal -0.000000e+000 6.167189e-001 7.871835e-001
    outer loop
      vertex   -5.282499e+001 4.523498e+001 5.877236e+000
      vertex   -5.082499e+001 4.523498e+001 5.877236e+000
      vertex   -5.282499e+001 4.537757e+001 5.765526e+000
    endloop
  endfacet
  facet normal -0.000000e+000 5.173378e-001 8.557813e-001
    outer loop
      vertex   -5.282499e+001 4.537757e+001 5.765526e+000
      vertex   -5.082499e+001 4.537757e+001 5.765526e+000
      vertex   -5.282499e+001 4.553258e+001 5.671818e+000
    endloop
  endfacet
  facet normal -0.000000e+000 4.104128e-001 9.118998e-001
    outer loop
      vertex   -5.282499e+001 4.553258e+001 5.671818e+000
      vertex   -5.082499e+001 4.553258e+001 5.671818e+000
      vertex   -5.282499e+001 4.569776e+001 5.597478e+000
    endloop
  endfacet
  facet normal -0.000000e+000 2.975031e-001 9.547209e-001
    outer loop
      vertex   -5.282499e+001 4.569776e+001 5.597478e+000
      vertex   -5.082499e+001 4.569776e+001 5.597478e+000
      vertex   -5.282499e+001 4.587069e+001 5.543590e+000
    endloop
  endfacet
  facet normal -0.000000e+000 1.802550e-001 9.836199e-001
    outer loop
      vertex   -5.282499e+001 4.587069e+001 5.543590e+000
      vertex   -5.082499e+001 4.587069e+001 5.543590e+000
      vertex   -5.282499e+001 4.604886e+001 5.510939e+000
    endloop
  endfacet
  facet normal -0.000000e+000 6.037850e-002 9.981756e-001
    outer loop
      vertex   -5.282499e+001 4.604886e+001 5.510939e+000
      vertex   -5.082499e+001 4.604886e+001 5.510939e+000
      vertex   -5.282499e+001 4.622966e+001 5.500002e+000
    endloop
  endfacet
  facet normal 0.000000e+000 -6.037850e-002 9.981756e-001
    outer loop
      vertex   -5.282499e+001 4.622966e+001 5.500002e+000
      vertex   -5.082499e+001 4.622966e+001 5.500002e+000
      vertex   -5.282499e+001 4.641047e+001 5.510939e+000
    endloop
  endfacet
  facet normal 0.000000e+000 -1.802550e-001 9.836199e-001
    outer loop
      vertex   -5.282499e+001 4.641047e+001 5.510939e+000
      vertex   -5.082499e+001 4.641047e+001 5.510939e+000
      vertex   -5.282499e+001 4.658864e+001 5.543590e+000
    endloop
  endfacet
  facet normal 0.000000e+000 -2.975031e-001 9.547209e-001
    outer loop
      vertex   -5.282499e+001 4.658864e+001 5.543590e+000
      vertex   -5.082499e+001 4.658864e+001 5.543590e+000
      vertex   -5.282499e+001 4.676157e+001 5.597478e+000
    endloop
  endfacet
  facet normal 0.000000e+000 -4.104128e-001 9.118998e-001
    outer loop
      vertex   -5.282499e+001 4.676157e+001 5.597478e+000
      vertex   -5.082499e+001 4.676157e+001 5.597478e+000
      vertex   -5.282499e+001 4.692675e+001 5.671818e+000
    endloop
  endfacet
  facet normal 0.000000e+000 -5.173378e-001 8.557813e-001
    outer loop
      vertex   -5.282499e+001 4.692675e+001 5.671818e+000
      vertex   -5.082499e+001 4.692675e+001 5.671818e+000
      vertex   -5.282499e+001 4.708176e+001 5.765526e+000
    endloop
  endfacet
  facet normal 0.000000e+000 -6.167189e-001 7.871835e-001
    outer loop
      vertex   -5.282499e+001 4.708176e+001 5.765526e+000
      vertex   -5.082499e+001 4.708176e+001 5.765526e+000
      vertex   -5.282499e+001 4.722435e+001 5.877236e+000
    endloop
  endfacet
  facet normal 0.000000e+000 -7.071068e-001 7.071068e-001
    outer loop
      vertex   -5.282499e+001 4.722435e+001 5.877236e+000
      vertex   -5.082499e+001 4.722435e+001 5.877236e+000
      vertex   -5.282499e+001 4.735243e+001 6.005318e+000
    endloop
  endfacet
  facet normal 0.000000e+000 -7.871835e-001 6.167189e-001
    outer loop
      vertex   -5.282499e+001 4.735243e+001 6.005318e+000
      vertex   -5.082499e+001 4.735243e+001 6.005318e+000
      vertex   -5.282499e+001 4.746414e+001 6.147905e+000
    endloop
  endfacet
  facet normal 0.000000e+000 -8.557813e-001 5.173378e-001
    outer loop
      vertex   -5.282499e+001 4.746414e+001 6.147905e+000
      vertex   -5.082499e+001 4.746414e+001 6.147905e+000
      vertex   -5.282499e+001 4.755785e+001 6.302918e+000
    endloop
  endfacet
  facet normal 0.000000e+000 -9.118998e-001 4.104128e-001
    outer loop
      vertex   -5.282499e+001 4.755785e+001 6.302918e+000
      vertex   -5.082499e+001 4.755785e+001 6.302918e+000
      vertex   -5.282499e+001 4.763219e+001 6.468095e+000
    endloop
  endfacet
  facet normal -1.321179e-016 -9.547209e-001 2.975031e-001
    outer loop
      vertex   -5.282499e+001 4.763219e+001 6.468095e+000
      vertex   -5.082499e+001 4.763219e+001 6.468095e+000
      vertex   -5.282499e+001 4.768608e+001 6.641029e+000
    endloop
  endfacet
  facet normal -8.004932e-017 -9.836199e-001 1.802550e-001
    outer loop
      vertex   -5.282499e+001 4.768608e+001 6.641029e+000
      vertex   -5.082499e+001 4.768608e+001 6.641029e+000
      vertex   -5.282499e+001 4.771873e+001 6.819197e+000
    endloop
  endfacet
  facet normal -2.681344e-017 -9.981756e-001 6.037850e-002
    outer loop
      vertex   -5.282499e+001 4.771873e+001 6.819197e+000
      vertex   -5.082499e+001 4.771873e+001 6.819197e+000
      vertex   -5.282499e+001 4.772966e+001 7.000002e+000
    endloop
  endfacet
  facet normal 0.000000e+000 -9.981756e-001 -6.037850e-002
    outer loop
      vertex   -5.282499e+001 4.772966e+001 7.000002e+000
      vertex   -5.082499e+001 4.772966e+001 7.000002e+000
      vertex   -5.282499e+001 4.771873e+001 7.180807e+000
    endloop
  endfacet
  facet normal 0.000000e+000 -9.836199e-001 -1.802550e-001
    outer loop
      vertex   -5.282499e+001 4.771873e+001 7.180807e+000
      vertex   -5.082499e+001 4.771873e+001 7.180807e+000
      vertex   -5.282499e+001 4.768608e+001 7.358976e+000
    endloop
  endfacet
  facet normal 0.000000e+000 -9.547209e-001 -2.975031e-001
    outer loop
      vertex   -5.282499e+001 4.768608e+001 7.358976e+000
      vertex   -5.082499e+001 4.768608e+001 7.358976e+000
      vertex   -5.282499e+001 4.763219e+001 7.531910e+000
    endloop
  endfacet
  facet normal 0.000000e+000 -9.118998e-001 -4.104128e-001
    outer loop
      vertex   -5.282499e+001 4.763219e+001 7.531910e+000
      vertex   -5.082499e+001 4.763219e+001 7.531910e+000
      vertex   -5.282499e+001 4.755785e+001 7.697087e+000
    endloop
  endfacet
  facet normal 0.000000e+000 -8.557813e-001 -5.173378e-001
    outer loop
      vertex   -5.282499e+001 4.755785e+001 7.697087e+000
      vertex   -5.082499e+001 4.755785e+001 7.697087e+000
      vertex   -5.282499e+001 4.746414e+001 7.852099e+000
    endloop
  endfacet
  facet normal 0.000000e+000 -7.871835e-001 -6.167189e-001
    outer loop
      vertex   -5.282499e+001 4.746414e+001 7.852099e+000
      vertex   -5.082499e+001 4.746414e+001 7.852099e+000
      vertex   -5.282499e+001 4.735243e+001 7.994686e+000
    endloop
  endfacet
  facet normal 3.140185e-016 -7.071068e-001 -7.071068e-001
    outer loop
      vertex   -5.282499e+001 4.735243e+001 7.994686e+000
      vertex   -5.082499e+001 4.735243e+001 7.994686e+000
      vertex   -5.282499e+001 4.722435e+001 8.122768e+000
    endloop
  endfacet
  facet normal 0.000000e+000 -6.167189e-001 -7.871835e-001
    outer loop
      vertex   -5.282499e+001 4.722435e+001 8.122768e+000
      vertex   -5.082499e+001 4.722435e+001 8.122768e+000
      vertex   -5.282499e+001 4.708176e+001 8.234478e+000
    endloop
  endfacet
  facet normal 0.000000e+000 -5.173378e-001 -8.557813e-001
    outer loop
      vertex   -5.282499e+001 4.708176e+001 8.234478e+000
      vertex   -5.082499e+001 4.708176e+001 8.234478e+000
      vertex   -5.282499e+001 4.692675e+001 8.328186e+000
    endloop
  endfacet
  facet normal -1.458079e-015 -4.104128e-001 -9.118998e-001
    outer loop
      vertex   -5.282499e+001 4.692675e+001 8.328186e+000
      vertex   -5.082499e+001 4.692675e+001 8.328186e+000
      vertex   -5.282499e+001 4.676157e+001 8.402527e+000
    endloop
  endfacet
  facet normal 0.000000e+000 -2.975031e-001 -9.547209e-001
    outer loop
      vertex   -5.282499e+001 4.676157e+001 8.402527e+000
      vertex   -5.082499e+001 4.676157e+001 8.402527e+000
      vertex   -5.282499e+001 4.658864e+001 8.456415e+000
    endloop
  endfacet
  facet normal 0.000000e+000 -1.802550e-001 -9.836199e-001
    outer loop
      vertex   -5.282499e+001 4.658864e+001 8.456415e+000
      vertex   -5.082499e+001 4.658864e+001 8.456415e+000
      vertex   -5.282499e+001 4.641047e+001 8.489066e+000
    endloop
  endfacet
  facet normal 0.000000e+000 -6.037850e-002 -9.981756e-001
    outer loop
      vertex   -5.282499e+001 4.641047e+001 8.489066e+000
      vertex   -5.082499e+001 4.641047e+001 8.489066e+000
      vertex   -5.282499e+001 4.622966e+001 8.500002e+000
    endloop
  endfacet
  facet normal 7.105427e-015 1.000000e+000 3.712287e-030
    outer loop
      vertex   -5.082499e+001 6.922966e+001 1.380000e+001
      vertex   -5.082499e+001 6.922966e+001 2.000023e-001
      vertex   -5.282499e+001 6.922966e+001 1.380000e+001
    endloop
  endfacet
  facet normal 7.105427e-015 1.000000e+000 0.000000e+000
    outer loop
      vertex   -5.282499e+001 6.922966e+001 1.380000e+001
      vertex   -5.082499e+001 6.922966e+001 2.000023e-001
      vertex   -5.282499e+001 6.922966e+001 2.000023e-001
    endloop
  endfacet
  facet normal 1.000000e+000 0.000000e+000 -0.000000e+000
    outer loop
      vertex   -5.082499e+001 4.322966e+001 2.000023e-001
      vertex   -5.082499e+001 4.472966e+001 7.000002e+000
      vertex   -5.082499e+001 4.322966e+001 1.380000e+001
    endloop
  endfacet
  facet normal 1.000000e+000 0.000000e+000 -0.000000e+000
    outer loop
      vertex   -5.082499e+001 4.322966e+001 2.000023e-001
      vertex   -5.082499e+001 4.474060e+001 6.819197e+000
      vertex   -5.082499e+001 4.472966e+001 7.000002e+000
    endloop
  endfacet
  facet normal 1.000000e+000 0.000000e+000 -0.000000e+000
    outer loop
      vertex   -5.082499e+001 4.322966e+001 2.000023e-001
      vertex   -5.082499e+001 4.477325e+001 6.641029e+000
      vertex   -5.082499e+001 4.474060e+001 6.819197e+000
    endloop
  endfacet
  facet normal 1.000000e+000 0.000000e+000 -0.000000e+000
    outer loop
      vertex   -5.082499e+001 4.322966e+001 2.000023e-001
      vertex   -5.082499e+001 4.482714e+001 6.468095e+000
      vertex   -5.082499e+001 4.477325e+001 6.641029e+000
    endloop
  endfacet
  facet normal 1.000000e+000 0.000000e+000 -0.000000e+000
    outer loop
      vertex   -5.082499e+001 4.322966e+001 2.000023e-001
      vertex   -5.082499e+001 4.490148e+001 6.302918e+000
      vertex   -5.082499e+001 4.482714e+001 6.468095e+000
    endloop
  endfacet
  facet normal 1.000000e+000 0.000000e+000 -0.000000e+000
    outer loop
      vertex   -5.082499e+001 4.322966e+001 2.000023e-001
      vertex   -5.082499e+001 4.499519e+001 6.147905e+000
      vertex   -5.082499e+001 4.490148e+001 6.302918e+000
    endloop
  endfacet
  facet normal 1.000000e+000 0.000000e+000 -0.000000e+000
    outer loop
      vertex   -5.082499e+001 4.322966e+001 2.000023e-001
      vertex   -5.082499e+001 4.510690e+001 6.005318e+000
      vertex   -5.082499e+001 4.499519e+001 6.147905e+000
    endloop
  endfacet
  facet normal 1.000000e+000 0.000000e+000 -0.000000e+000
    outer loop
      vertex   -5.082499e+001 4.322966e+001 2.000023e-001
      vertex   -5.082499e+001 4.523498e+001 5.877236e+000
      vertex   -5.082499e+001 4.510690e+001 6.005318e+000
    endloop
  endfacet
  facet normal 1.000000e+000 0.000000e+000 -0.000000e+000
    outer loop
      vertex   -5.082499e+001 4.322966e+001 2.000023e-001
      vertex   -5.082499e+001 4.537757e+001 5.765526e+000
      vertex   -5.082499e+001 4.523498e+001 5.877236e+000
    endloop
  endfacet
  facet normal 1.000000e+000 0.000000e+000 -0.000000e+000
    outer loop
      vertex   -5.082499e+001 4.322966e+001 2.000023e-001
      vertex   -5.082499e+001 4.553258e+001 5.671818e+000
      vertex   -5.082499e+001 4.537757e+001 5.765526e+000
    endloop
  endfacet
  facet normal 1.000000e+000 0.000000e+000 -0.000000e+000
    outer loop
      vertex   -5.082499e+001 4.322966e+001 2.000023e-001
      vertex   -5.082499e+001 4.569776e+001 5.597478e+000
      vertex   -5.082499e+001 4.553258e+001 5.671818e+000
    endloop
  endfacet
  facet normal 1.000000e+000 0.000000e+000 -0.000000e+000
    outer loop
      vertex   -5.082499e+001 4.322966e+001 2.000023e-001
      vertex   -5.082499e+001 4.587069e+001 5.543590e+000
      vertex   -5.082499e+001 4.569776e+001 5.597478e+000
    endloop
  endfacet
  facet normal 1.000000e+000 0.000000e+000 -0.000000e+000
    outer loop
      vertex   -5.082499e+001 4.322966e+001 2.000023e-001
      vertex   -5.082499e+001 4.604886e+001 5.510939e+000
      vertex   -5.082499e+001 4.587069e+001 5.543590e+000
    endloop
  endfacet
  facet normal 1.000000e+000 0.000000e+000 -0.000000e+000
    outer loop
      vertex   -5.082499e+001 4.322966e+001 2.000023e-001
      vertex   -5.082499e+001 4.622966e+001 5.500002e+000
      vertex   -5.082499e+001 4.604886e+001 5.510939e+000
    endloop
  endfacet
  facet normal 1.000000e+000 0.000000e+000 -0.000000e+000
    outer loop
      vertex   -5.082499e+001 4.322966e+001 2.000023e-001
      vertex   -5.082499e+001 4.641047e+001 5.510939e+000
      vertex   -5.082499e+001 4.622966e+001 5.500002e+000
    endloop
  endfacet
  facet normal 1.000000e+000 0.000000e+000 -0.000000e+000
    outer loop
      vertex   -5.082499e+001 4.322966e+001 2.000023e-001
      vertex   -5.082499e+001 4.658864e+001 5.543590e+000
      vertex   -5.082499e+001 4.641047e+001 5.510939e+000
    endloop
  endfacet
  facet normal 1.000000e+000 0.000000e+000 -0.000000e+000
    outer loop
      vertex   -5.082499e+001 4.322966e+001 2.000023e-001
      vertex   -5.082499e+001 4.676157e+001 5.597478e+000
      vertex   -5.082499e+001 4.658864e+001 5.543590e+000
    endloop
  endfacet
  facet normal 1.000000e+000 0.000000e+000 -0.000000e+000
    outer loop
      vertex   -5.082499e+001 4.322966e+001 2.000023e-001
      vertex   -5.082499e+001 4.692675e+001 5.671818e+000
      vertex   -5.082499e+001 4.676157e+001 5.597478e+000
    endloop
  endfacet
  facet normal 1.000000e+000 -2.732856e-016 1.846482e-016
    outer loop
      vertex   -5.082499e+001 4.322966e+001 2.000023e-001
      vertex   -5.082499e+001 6.922966e+001 2.000023e-001
      vertex   -5.082499e+001 4.692675e+001 5.671818e+000
    endloop
  endfacet
  facet normal 1.000000e+000 -2.266166e-016 3.748696e-016
    outer loop
      vertex   -5.082499e+001 4.692675e+001 5.671818e+000
      vertex   -5.082499e+001 6.922966e+001 2.000023e-001
      vertex   -5.082499e+001 4.708176e+001 5.765526e+000
    endloop
  endfacet
  facet normal 1.000000e+000 -2.429059e-016 3.100465e-016
    outer loop
      vertex   -5.082499e+001 4.708176e+001 5.765526e+000
      vertex   -5.082499e+001 6.922966e+001 2.000023e-001
      vertex   -5.082499e+001 4.722435e+001 5.877236e+000
    endloop
  endfacet
  facet normal 1.000000e+000 -2.566753e-016 2.566753e-016
    outer loop
      vertex   -5.082499e+001 4.722435e+001 5.877236e+000
      vertex   -5.082499e+001 6.922966e+001 2.000023e-001
      vertex   -5.082499e+001 4.735243e+001 6.005318e+000
    endloop
  endfacet
  facet normal 1.000000e+000 -2.688862e-016 2.106589e-016
    outer loop
      vertex   -5.082499e+001 4.735243e+001 6.005318e+000
      vertex   -5.082499e+001 6.922966e+001 2.000023e-001
      vertex   -5.082499e+001 4.746414e+001 6.147905e+000
    endloop
  endfacet
  facet normal 1.000000e+000 -2.801697e-016 1.693685e-016
    outer loop
      vertex   -5.082499e+001 4.746414e+001 6.147905e+000
      vertex   -5.082499e+001 6.922966e+001 2.000023e-001
      vertex   -5.082499e+001 4.755785e+001 6.302918e+000
    endloop
  endfacet
  facet normal 1.000000e+000 -2.909852e-016 1.309618e-016
    outer loop
      vertex   -5.082499e+001 4.755785e+001 6.302918e+000
      vertex   -5.082499e+001 6.922966e+001 2.000023e-001
      vertex   -5.082499e+001 4.763219e+001 6.468095e+000
    endloop
  endfacet
  facet normal 1.000000e+000 -3.017078e-016 9.401595e-017
    outer loop
      vertex   -5.082499e+001 4.763219e+001 6.468095e+000
      vertex   -5.082499e+001 6.922966e+001 2.000023e-001
      vertex   -5.082499e+001 4.768608e+001 6.641029e+000
    endloop
  endfacet
  facet normal 1.000000e+000 -3.126845e-016 5.730157e-017
    outer loop
      vertex   -5.082499e+001 4.768608e+001 6.641029e+000
      vertex   -5.082499e+001 6.922966e+001 2.000023e-001
      vertex   -5.082499e+001 4.771873e+001 6.819197e+000
    endloop
  endfacet
  facet normal 1.000000e+000 -3.242811e-016 1.961539e-017
    outer loop
      vertex   -5.082499e+001 4.771873e+001 6.819197e+000
      vertex   -5.082499e+001 6.922966e+001 2.000023e-001
      vertex   -5.082499e+001 4.772966e+001 7.000002e+000
    endloop
  endfacet
  facet normal 1.000000e+000 -1.652425e-016 5.224579e-016
    outer loop
      vertex   -5.082499e+001 4.772966e+001 7.000002e+000
      vertex   -5.082499e+001 6.922966e+001 2.000023e-001
      vertex   -5.082499e+001 6.922966e+001 1.380000e+001
    endloop
  endfacet
  facet normal 1.000000e+000 0.000000e+000 -0.000000e+000
    outer loop
      vertex   -5.082499e+001 4.771873e+001 7.180807e+000
      vertex   -5.082499e+001 6.922966e+001 1.380000e+001
      vertex   -5.082499e+001 4.768608e+001 7.358976e+000
    endloop
  endfacet
  facet normal 1.000000e+000 -0.000000e+000 0.000000e+000
    outer loop
      vertex   -5.082499e+001 4.771873e+001 7.180807e+000
      vertex   -5.082499e+001 4.772966e+001 7.000002e+000
      vertex   -5.082499e+001 6.922966e+001 1.380000e+001
    endloop
  endfacet
  facet normal 1.000000e+000 -0.000000e+000 0.000000e+000
    outer loop
      vertex   -5.082499e+001 4.322966e+001 1.380000e+001
      vertex   -5.082499e+001 4.692675e+001 8.328186e+000
      vertex   -5.082499e+001 6.922966e+001 1.380000e+001
    endloop
  endfacet
  facet normal 1.000000e+000 0.000000e+000 0.000000e+000
    outer loop
      vertex   -5.082499e+001 4.322966e+001 1.380000e+001
      vertex   -5.082499e+001 4.676157e+001 8.402527e+000
      vertex   -5.082499e+001 4.692675e+001 8.328186e+000
    endloop
  endfacet
  facet normal 1.000000e+000 0.000000e+000 0.000000e+000
    outer loop
      vertex   -5.082499e+001 4.322966e+001 1.380000e+001
      vertex   -5.082499e+001 4.658864e+001 8.456415e+000
      vertex   -5.082499e+001 4.676157e+001 8.402527e+000
    endloop
  endfacet
  facet normal 1.000000e+000 0.000000e+000 0.000000e+000
    outer loop
      vertex   -5.082499e+001 4.322966e+001 1.380000e+001
      vertex   -5.082499e+001 4.641047e+001 8.489066e+000
      vertex   -5.082499e+001 4.658864e+001 8.456415e+000
    endloop
  endfacet
  facet normal 1.000000e+000 0.000000e+000 0.000000e+000
    outer loop
      vertex   -5.082499e+001 4.322966e+001 1.380000e+001
      vertex   -5.082499e+001 4.622966e+001 8.500002e+000
      vertex   -5.082499e+001 4.641047e+001 8.489066e+000
    endloop
  endfacet
  facet normal 1.000000e+000 -0.000000e+000 0.000000e+000
    outer loop
      vertex   -5.082499e+001 4.322966e+001 1.380000e+001
      vertex   -5.082499e+001 4.604886e+001 8.489066e+000
      vertex   -5.082499e+001 4.622966e+001 8.500002e+000
    endloop
  endfacet
  facet normal 1.000000e+000 -0.000000e+000 0.000000e+000
    outer loop
      vertex   -5.082499e+001 4.322966e+001 1.380000e+001
      vertex   -5.082499e+001 4.587069e+001 8.456415e+000
      vertex   -5.082499e+001 4.604886e+001 8.489066e+000
    endloop
  endfacet
  facet normal 1.000000e+000 -0.000000e+000 0.000000e+000
    outer loop
      vertex   -5.082499e+001 4.322966e+001 1.380000e+001
      vertex   -5.082499e+001 4.569776e+001 8.402527e+000
      vertex   -5.082499e+001 4.587069e+001 8.456415e+000
    endloop
  endfacet
  facet normal 1.000000e+000 -0.000000e+000 0.000000e+000
    outer loop
      vertex   -5.082499e+001 4.322966e+001 1.380000e+001
      vertex   -5.082499e+001 4.553258e+001 8.328186e+000
      vertex   -5.082499e+001 4.569776e+001 8.402527e+000
    endloop
  endfacet
  facet normal 1.000000e+000 -0.000000e+000 0.000000e+000
    outer loop
      vertex   -5.082499e+001 4.322966e+001 1.380000e+001
      vertex   -5.082499e+001 4.537757e+001 8.234478e+000
      vertex   -5.082499e+001 4.553258e+001 8.328186e+000
    endloop
  endfacet
  facet normal 1.000000e+000 -0.000000e+000 0.000000e+000
    outer loop
      vertex   -5.082499e+001 4.322966e+001 1.380000e+001
      vertex   -5.082499e+001 4.523498e+001 8.122768e+000
      vertex   -5.082499e+001 4.537757e+001 8.234478e+000
    endloop
  endfacet
  facet normal 1.000000e+000 -0.000000e+000 0.000000e+000
    outer loop
      vertex   -5.082499e+001 4.322966e+001 1.380000e+001
      vertex   -5.082499e+001 4.510690e+001 7.994686e+000
      vertex   -5.082499e+001 4.523498e+001 8.122768e+000
    endloop
  endfacet
  facet normal 1.000000e+000 -0.000000e+000 0.000000e+000
    outer loop
      vertex   -5.082499e+001 4.322966e+001 1.380000e+001
      vertex   -5.082499e+001 4.499519e+001 7.852099e+000
      vertex   -5.082499e+001 4.510690e+001 7.994686e+000
    endloop
  endfacet
  facet normal 1.000000e+000 -0.000000e+000 0.000000e+000
    outer loop
      vertex   -5.082499e+001 4.322966e+001 1.380000e+001
      vertex   -5.082499e+001 4.490148e+001 7.697087e+000
      vertex   -5.082499e+001 4.499519e+001 7.852099e+000
    endloop
  endfacet
  facet normal 1.000000e+000 -0.000000e+000 0.000000e+000
    outer loop
      vertex   -5.082499e+001 4.322966e+001 1.380000e+001
      vertex   -5.082499e+001 4.482714e+001 7.531910e+000
      vertex   -5.082499e+001 4.490148e+001 7.697087e+000
    endloop
  endfacet
  facet normal 1.000000e+000 -0.000000e+000 0.000000e+000
    outer loop
      vertex   -5.082499e+001 4.322966e+001 1.380000e+001
      vertex   -5.082499e+001 4.477325e+001 7.358976e+000
      vertex   -5.082499e+001 4.482714e+001 7.531910e+000
    endloop
  endfacet
  facet normal 1.000000e+000 -0.000000e+000 0.000000e+000
    outer loop
      vertex   -5.082499e+001 4.322966e+001 1.380000e+001
      vertex   -5.082499e+001 4.474060e+001 7.180807e+000
      vertex   -5.082499e+001 4.477325e+001 7.358976e+000
    endloop
  endfacet
  facet normal 1.000000e+000 -0.000000e+000 0.000000e+000
    outer loop
      vertex   -5.082499e+001 4.322966e+001 1.380000e+001
      vertex   -5.082499e+001 4.472966e+001 7.000002e+000
      vertex   -5.082499e+001 4.474060e+001 7.180807e+000
    endloop
  endfacet
  facet normal 1.000000e+000 -0.000000e+000 0.000000e+000
    outer loop
      vertex   -5.082499e+001 4.692675e+001 8.328186e+000
      vertex   -5.082499e+001 4.708176e+001 8.234478e+000
      vertex   -5.082499e+001 6.922966e+001 1.380000e+001
    endloop
  endfacet
  facet normal 1.000000e+000 0.000000e+000 0.000000e+000
    outer loop
      vertex   -5.082499e+001 6.922966e+001 1.380000e+001
      vertex   -5.082499e+001 4.708176e+001 8.234478e+000
      vertex   -5.082499e+001 4.722435e+001 8.122768e+000
    endloop
  endfacet
  facet normal 1.000000e+000 0.000000e+000 -0.000000e+000
    outer loop
      vertex   -5.082499e+001 4.735243e+001 7.994686e+000
      vertex   -5.082499e+001 6.922966e+001 1.380000e+001
      vertex   -5.082499e+001 4.722435e+001 8.122768e+000
    endloop
  endfacet
  facet normal 1.000000e+000 -0.000000e+000 0.000000e+000
    outer loop
      vertex   -5.082499e+001 4.735243e+001 7.994686e+000
      vertex   -5.082499e+001 4.746414e+001 7.852099e+000
      vertex   -5.082499e+001 6.922966e+001 1.380000e+001
    endloop
  endfacet
  facet normal 1.000000e+000 0.000000e+000 0.000000e+000
    outer loop
      vertex   -5.082499e+001 6.922966e+001 1.380000e+001
      vertex   -5.082499e+001 4.746414e+001 7.852099e+000
      vertex   -5.082499e+001 4.755785e+001 7.697087e+000
    endloop
  endfacet
  facet normal 1.000000e+000 0.000000e+000 -0.000000e+000
    outer loop
      vertex   -5.082499e+001 4.763219e+001 7.531910e+000
      vertex   -5.082499e+001 6.922966e+001 1.380000e+001
      vertex   -5.082499e+001 4.755785e+001 7.697087e+000
    endloop
  endfacet
  facet normal 1.000000e+000 -0.000000e+000 0.000000e+000
    outer loop
      vertex   -5.082499e+001 4.763219e+001 7.531910e+000
      vertex   -5.082499e+001 4.768608e+001 7.358976e+000
      vertex   -5.082499e+001 6.922966e+001 1.380000e+001
    endloop
  endfacet
  facet normal 0.000000e+000 -0.000000e+000 -1.000000e+000
    outer loop
      vertex   -5.282499e+001 6.922966e+001 2.000023e-001
      vertex   -5.082499e+001 6.922966e+001 2.000023e-001
      vertex   -5.282499e+001 4.322966e+001 2.000023e-001
    endloop
  endfacet
  facet normal 0.000000e+000 -0.000000e+000 -1.000000e+000
    outer loop
      vertex   -5.282499e+001 4.322966e+001 2.000023e-001
      vertex   -5.082499e+001 6.922966e+001 2.000023e-001
      vertex   -5.082499e+001 4.322966e+001 2.000023e-001
    endloop
  endfacet
  facet normal 0.000000e+000 0.000000e+000 -1.000000e+000
    outer loop
      vertex   -5.082499e+001 4.122966e+001 2.000023e-001
      vertex   -5.082499e+001 4.322966e+001 2.000023e-001
      vertex   -4.882499e+001 4.322966e+001 2.000023e-001
    endloop
  endfacet
  facet normal 0.000000e+000 0.000000e+000 -1.000000e+000
    outer loop
      vertex   -4.882499e+001 4.122966e+001 2.000023e-001
      vertex   -5.082499e+001 4.122966e+001 2.000023e-001
      vertex   -4.882499e+001 4.322966e+001 2.000023e-001
    endloop
  endfacet
  facet normal 0.000000e+000 0.000000e+000 -1.000000e+000
    outer loop
      vertex   -5.282499e+001 4.322966e+001 2.000023e-001
      vertex   -5.082499e+001 4.322966e+001 2.000023e-001
      vertex   -5.082499e+001 4.122966e+001 2.000023e-001
    endloop
  endfacet
  facet normal 0.000000e+000 0.000000e+000 -1.000000e+000
    outer loop
      vertex   -5.282499e+001 4.122966e+001 2.000023e-001
      vertex   -5.082499e+001 4.122966e+001 2.000023e-001
      vertex   -5.082499e+001 3.122966e+001 2.000023e-001
    endloop
  endfacet
  facet normal 0.000000e+000 -0.000000e+000 -1.000000e+000
    outer loop
      vertex   -5.282499e+001 3.122966e+001 2.000023e-001
      vertex   -5.082499e+001 3.122966e+001 2.000023e-001
      vertex   -5.282499e+001 2.922966e+001 2.000023e-001
    endloop
  endfacet
  facet normal 0.000000e+000 0.000000e+000 -1.000000e+000
    outer loop
      vertex   -5.482499e+001 2.922966e+001 2.000023e-001
      vertex   -5.282499e+001 3.122966e+001 2.000023e-001
      vertex   -5.282499e+001 2.922966e+001 2.000023e-001
    endloop
  endfacet
  facet normal 0.000000e+000 0.000000e+000 -1.000000e+000
    outer loop
      vertex   -5.482499e+001 2.922966e+001 2.000023e-001
      vertex   -5.482499e+001 3.122966e+001 2.000023e-001
      vertex   -5.282499e+001 3.122966e+001 2.000023e-001
    endloop
  endfacet
  facet normal -0.000000e+000 -0.000000e+000 -1.000000e+000
    outer loop
      vertex   -5.282499e+001 4.322966e+001 2.000023e-001
      vertex   -5.082499e+001 4.122966e+001 2.000023e-001
      vertex   -5.282499e+001 4.122966e+001 2.000023e-001
    endloop
  endfacet
  facet normal -0.000000e+000 -0.000000e+000 -1.000000e+000
    outer loop
      vertex   -5.482499e+001 4.322966e+001 2.000023e-001
      vertex   -5.282499e+001 4.122966e+001 2.000023e-001
      vertex   -5.482499e+001 4.122966e+001 2.000023e-001
    endloop
  endfacet
  facet normal 0.000000e+000 0.000000e+000 -1.000000e+000
    outer loop
      vertex   -5.482499e+001 4.322966e+001 2.000023e-001
      vertex   -5.282499e+001 4.322966e+001 2.000023e-001
      vertex   -5.282499e+001 4.122966e+001 2.000023e-001
    endloop
  endfacet
  facet normal 0.000000e+000 0.000000e+000 -1.000000e+000
    outer loop
      vertex   -5.282499e+001 2.922966e+001 2.000023e-001
      vertex   -5.082499e+001 3.122966e+001 2.000023e-001
      vertex   -5.082499e+001 2.922966e+001 2.000023e-001
    endloop
  endfacet
  facet normal 0.000000e+000 0.000000e+000 -1.000000e+000
    outer loop
      vertex   -5.282499e+001 6.229663e+000 2.000023e-001
      vertex   -5.082499e+001 2.922966e+001 2.000023e-001
      vertex   -5.082499e+001 6.229663e+000 2.000023e-001
    endloop
  endfacet
  facet normal 0.000000e+000 0.000000e+000 -1.000000e+000
    outer loop
      vertex   -5.282499e+001 6.229663e+000 2.000023e-001
      vertex   -5.282499e+001 2.922966e+001 2.000023e-001
      vertex   -5.082499e+001 2.922966e+001 2.000023e-001
    endloop
  endfacet
  facet normal 0.000000e+000 0.000000e+000 -1.000000e+000
    outer loop
      vertex   -4.882499e+001 2.922966e+001 2.000023e-001
      vertex   -5.082499e+001 2.922966e+001 2.000023e-001
      vertex   -4.882499e+001 3.122966e+001 2.000023e-001
    endloop
  endfacet
  facet normal -0.000000e+000 0.000000e+000 -1.000000e+000
    outer loop
      vertex   -4.882499e+001 3.122966e+001 2.000023e-001
      vertex   -5.082499e+001 2.922966e+001 2.000023e-001
      vertex   -5.082499e+001 3.122966e+001 2.000023e-001
    endloop
  endfacet
  facet normal 0.000000e+000 0.000000e+000 -1.000000e+000
    outer loop
      vertex   -5.282499e+001 3.122966e+001 2.000023e-001
      vertex   -5.282499e+001 4.122966e+001 2.000023e-001
      vertex   -5.082499e+001 3.122966e+001 2.000023e-001
    endloop
  endfacet
  facet normal -1.000000e+000 -0.000000e+000 -0.000000e+000
    outer loop
      vertex   -5.282499e+001 2.922966e+001 1.380000e+001
      vertex   -5.282499e+001 2.922966e+001 2.000023e-001
      vertex   -5.282499e+001 6.229663e+000 1.380000e+001
    endloop
  endfacet
  facet normal -1.000000e+000 -0.000000e+000 -0.000000e+000
    outer loop
      vertex   -5.282499e+001 6.229663e+000 1.380000e+001
      vertex   -5.282499e+001 2.922966e+001 2.000023e-001
      vertex   -5.282499e+001 6.229663e+000 2.000023e-001
    endloop
  endfacet
  facet normal 0.000000e+000 0.000000e+000 1.000000e+000
    outer loop
      vertex   -5.082499e+001 6.922966e+001 1.380000e+001
      vertex   -5.282499e+001 6.922966e+001 1.380000e+001
      vertex   -5.082499e+001 4.322966e+001 1.380000e+001
    endloop
  endfacet
  facet normal 0.000000e+000 0.000000e+000 1.000000e+000
    outer loop
      vertex   -5.082499e+001 4.322966e+001 1.380000e+001
      vertex   -5.282499e+001 6.922966e+001 1.380000e+001
      vertex   -5.282499e+001 4.322966e+001 1.380000e+001
    endloop
  endfacet
  facet normal 0.000000e+000 0.000000e+000 1.000000e+000
    outer loop
      vertex   -5.082499e+001 4.122966e+001 1.380000e+001
      vertex   -5.282499e+001 4.322966e+001 1.380000e+001
      vertex   -5.282499e+001 4.122966e+001 1.380000e+001
    endloop
  endfacet
  facet normal 0.000000e+000 -0.000000e+000 1.000000e+000
    outer loop
      vertex   -5.282499e+001 3.122966e+001 1.380000e+001
      vertex   -5.082499e+001 4.122966e+001 1.380000e+001
      vertex   -5.282499e+001 4.122966e+001 1.380000e+001
    endloop
  endfacet
  facet normal 0.000000e+000 0.000000e+000 1.000000e+000
    outer loop
      vertex   -5.282499e+001 3.122966e+001 1.380000e+001
      vertex   -5.082499e+001 3.122966e+001 1.380000e+001
      vertex   -5.082499e+001 4.122966e+001 1.380000e+001
    endloop
  endfacet
  facet normal -0.000000e+000 0.000000e+000 1.000000e+000
    outer loop
      vertex   -5.282499e+001 3.122966e+001 1.380000e+001
      vertex   -5.082499e+001 2.922966e+001 1.380000e+001
      vertex   -5.082499e+001 3.122966e+001 1.380000e+001
    endloop
  endfacet
  facet normal -0.000000e+000 0.000000e+000 1.000000e+000
    outer loop
      vertex   -5.282499e+001 3.122966e+001 1.380000e+001
      vertex   -5.282499e+001 2.922966e+001 1.380000e+001
      vertex   -5.082499e+001 2.922966e+001 1.380000e+001
    endloop
  endfacet
  facet normal 0.000000e+000 0.000000e+000 1.000000e+000
    outer loop
      vertex   -5.282499e+001 3.122966e+001 1.380000e+001
      vertex   -5.482499e+001 3.122966e+001 1.380000e+001
      vertex   -5.282499e+001 2.922966e+001 1.380000e+001
    endloop
  endfacet
  facet normal 0.000000e+000 0.000000e+000 1.000000e+000
    outer loop
      vertex   -5.282499e+001 2.922966e+001 1.380000e+001
      vertex   -5.482499e+001 3.122966e+001 1.380000e+001
      vertex   -5.482499e+001 2.922966e+001 1.380000e+001
    endloop
  endfacet
  facet normal 0.000000e+000 0.000000e+000 1.000000e+000
    outer loop
      vertex   -5.282499e+001 4.322966e+001 1.380000e+001
      vertex   -5.482499e+001 4.322966e+001 1.380000e+001
      vertex   -5.282499e+001 4.122966e+001 1.380000e+001
    endloop
  endfacet
  facet normal 0.000000e+000 0.000000e+000 1.000000e+000
    outer loop
      vertex   -5.282499e+001 4.122966e+001 1.380000e+001
      vertex   -5.482499e+001 4.322966e+001 1.380000e+001
      vertex   -5.482499e+001 4.122966e+001 1.380000e+001
    endloop
  endfacet
  facet normal 0.000000e+000 -0.000000e+000 1.000000e+000
    outer loop
      vertex   -5.282499e+001 6.229663e+000 1.380000e+001
      vertex   -5.082499e+001 6.229663e+000 1.380000e+001
      vertex   -5.282499e+001 2.922966e+001 1.380000e+001
    endloop
  endfacet
  facet normal -0.000000e+000 0.000000e+000 1.000000e+000
    outer loop
      vertex   -5.282499e+001 2.922966e+001 1.380000e+001
      vertex   -5.082499e+001 6.229663e+000 1.380000e+001
      vertex   -5.082499e+001 2.922966e+001 1.380000e+001
    endloop
  endfacet
  facet normal 0.000000e+000 -0.000000e+000 1.000000e+000
    outer loop
      vertex   -5.082499e+001 2.922966e+001 1.380000e+001
      vertex   -4.882499e+001 2.922966e+001 1.380000e+001
      vertex   -5.082499e+001 3.122966e+001 1.380000e+001
    endloop
  endfacet
  facet normal -0.000000e+000 0.000000e+000 1.000000e+000
    outer loop
      vertex   -5.082499e+001 3.122966e+001 1.380000e+001
      vertex   -4.882499e+001 2.922966e+001 1.380000e+001
      vertex   -4.882499e+001 3.122966e+001 1.380000e+001
    endloop
  endfacet
  facet normal 0.000000e+000 -0.000000e+000 1.000000e+000
    outer loop
      vertex   -4.882499e+001 4.122966e+001 1.380000e+001
      vertex   -4.882499e+001 4.322966e+001 1.380000e+001
      vertex   -5.082499e+001 4.122966e+001 1.380000e+001
    endloop
  endfacet
  facet normal 0.000000e+000 -0.000000e+000 1.000000e+000
    outer loop
      vertex   -5.082499e+001 4.122966e+001 1.380000e+001
      vertex   -4.882499e+001 4.322966e+001 1.380000e+001
      vertex   -5.082499e+001 4.322966e+001 1.380000e+001
    endloop
  endfacet
  facet normal -0.000000e+000 0.000000e+000 1.000000e+000
    outer loop
      vertex   -5.282499e+001 4.322966e+001 1.380000e+001
      vertex   -5.082499e+001 4.122966e+001 1.380000e+001
      vertex   -5.082499e+001 4.322966e+001 1.380000e+001
    endloop
  endfacet
endsolid
