solid ascii
  facet normal 0.000000e+000 -1.000000e+000 0.000000e+000
    outer loop
      vertex   -5.282499e+001 1.522966e+001 1.400000e+001
      vertex   -5.282499e+001 1.522966e+001 2.294118e-006
      vertex   -5.082499e+001 1.522966e+001 1.400000e+001
    endloop
  endfacet
  facet normal 0.000000e+000 -1.000000e+000 -0.000000e+000
    outer loop
      vertex   -5.082499e+001 1.522966e+001 1.400000e+001
      vertex   -5.282499e+001 1.522966e+001 2.294118e-006
      vertex   -5.082499e+001 1.522966e+001 2.294118e-006
    endloop
  endfacet
  facet normal -0.000000e+000 1.000000e+000 0.000000e+000
    outer loop
      vertex   -5.482499e+001 3.122966e+001 1.400000e+001
      vertex   -5.282499e+001 3.122966e+001 1.400000e+001
      vertex   -5.482499e+001 3.122966e+001 0.000000e+000
    endloop
  endfacet
  facet normal -0.000000e+000 1.000000e+000 0.000000e+000
    outer loop
      vertex   -5.482499e+001 3.122966e+001 0.000000e+000
      vertex   -5.282499e+001 3.122966e+001 1.400000e+001
      vertex   -5.282499e+001 3.122966e+001 0.000000e+000
    endloop
  endfacet
  facet normal 0.000000e+000 -1.000000e+000 0.000000e+000
    outer loop
      vertex   -5.482499e+001 2.922966e+001 0.000000e+000
      vertex   -5.282499e+001 2.922966e+001 0.000000e+000
      vertex   -5.482499e+001 2.922966e+001 1.400000e+001
    endloop
  endfacet
  facet normal 0.000000e+000 -1.000000e+000 0.000000e+000
    outer loop
      vertex   -5.482499e+001 2.922966e+001 1.400000e+001
      vertex   -5.282499e+001 2.922966e+001 0.000000e+000
      vertex   -5.282499e+001 2.922966e+001 1.400000e+001
    endloop
  endfacet
  facet normal -1.000000e+000 -0.000000e+000 -0.000000e+000
    outer loop
      vertex   -5.482499e+001 3.122966e+001 1.400000e+001
      vertex   -5.482499e+001 3.122966e+001 0.000000e+000
      vertex   -5.482499e+001 2.922966e+001 1.400000e+001
    endloop
  endfacet
  facet normal -1.000000e+000 -0.000000e+000 -0.000000e+000
    outer loop
      vertex   -5.482499e+001 2.922966e+001 1.400000e+001
      vertex   -5.482499e+001 3.122966e+001 0.000000e+000
      vertex   -5.482499e+001 2.922966e+001 0.000000e+000
    endloop
  endfacet
  facet normal -1.000000e+000 0.000000e+000 0.000000e+000
    outer loop
      vertex   -5.282499e+001 3.122966e+001 0.000000e+000
      vertex   -5.282499e+001 3.122966e+001 1.400000e+001
      vertex   -5.282499e+001 4.122966e+001 0.000000e+000
    endloop
  endfacet
  facet normal -1.000000e+000 0.000000e+000 0.000000e+000
    outer loop
      vertex   -5.282499e+001 4.122966e+001 0.000000e+000
      vertex   -5.282499e+001 3.122966e+001 1.400000e+001
      vertex   -5.282499e+001 4.122966e+001 1.400000e+001
    endloop
  endfacet
  facet normal -0.000000e+000 1.000000e+000 0.000000e+000
    outer loop
      vertex   -5.082499e+001 4.322966e+001 1.400000e+001
      vertex   -4.882499e+001 4.322966e+001 1.400000e+001
      vertex   -5.082499e+001 4.322966e+001 0.000000e+000
    endloop
  endfacet
  facet normal -0.000000e+000 1.000000e+000 0.000000e+000
    outer loop
      vertex   -5.082499e+001 4.322966e+001 0.000000e+000
      vertex   -4.882499e+001 4.322966e+001 1.400000e+001
      vertex   -4.882499e+001 4.322966e+001 0.000000e+000
    endloop
  endfacet
  facet normal 1.000000e+000 0.000000e+000 -0.000000e+000
    outer loop
      vertex   -4.882499e+001 4.322966e+001 0.000000e+000
      vertex   -4.882499e+001 4.322966e+001 1.400000e+001
      vertex   -4.882499e+001 4.122966e+001 0.000000e+000
    endloop
  endfacet
  facet normal 1.000000e+000 0.000000e+000 -0.000000e+000
    outer loop
      vertex   -4.882499e+001 4.122966e+001 0.000000e+000
      vertex   -4.882499e+001 4.322966e+001 1.400000e+001
      vertex   -4.882499e+001 4.122966e+001 1.400000e+001
    endloop
  endfacet
  facet normal 0.000000e+000 -1.000000e+000 0.000000e+000
    outer loop
      vertex   -5.082499e+001 4.122966e+001 0.000000e+000
      vertex   -4.882499e+001 4.122966e+001 0.000000e+000
      vertex   -5.082499e+001 4.122966e+001 1.400000e+001
    endloop
  endfacet
  facet normal 0.000000e+000 -1.000000e+000 0.000000e+000
    outer loop
      vertex   -5.082499e+001 4.122966e+001 1.400000e+001
      vertex   -4.882499e+001 4.122966e+001 0.000000e+000
      vertex   -4.882499e+001 4.122966e+001 1.400000e+001
    endloop
  endfacet
  facet normal 1.000000e+000 0.000000e+000 -0.000000e+000
    outer loop
      vertex   -5.082499e+001 4.122966e+001 0.000000e+000
      vertex   -5.082499e+001 4.122966e+001 1.400000e+001
      vertex   -5.082499e+001 3.122966e+001 0.000000e+000
    endloop
  endfacet
  facet normal 1.000000e+000 0.000000e+000 -0.000000e+000
    outer loop
      vertex   -5.082499e+001 3.122966e+001 0.000000e+000
      vertex   -5.082499e+001 4.122966e+001 1.400000e+001
      vertex   -5.082499e+001 3.122966e+001 1.400000e+001
    endloop
  endfacet
  facet normal -0.000000e+000 1.000000e+000 0.000000e+000
    outer loop
      vertex   -5.082499e+001 3.122966e+001 1.400000e+001
      vertex   -4.882499e+001 3.122966e+001 1.400000e+001
      vertex   -5.082499e+001 3.122966e+001 0.000000e+000
    endloop
  endfacet
  facet normal -0.000000e+000 1.000000e+000 0.000000e+000
    outer loop
      vertex   -5.082499e+001 3.122966e+001 0.000000e+000
      vertex   -4.882499e+001 3.122966e+001 1.400000e+001
      vertex   -4.882499e+001 3.122966e+001 0.000000e+000
    endloop
  endfacet
  facet normal 1.000000e+000 0.000000e+000 -0.000000e+000
    outer loop
      vertex   -4.882499e+001 3.122966e+001 0.000000e+000
      vertex   -4.882499e+001 3.122966e+001 1.400000e+001
      vertex   -4.882499e+001 2.922966e+001 0.000000e+000
    endloop
  endfacet
  facet normal 1.000000e+000 0.000000e+000 -0.000000e+000
    outer loop
      vertex   -4.882499e+001 2.922966e+001 0.000000e+000
      vertex   -4.882499e+001 3.122966e+001 1.400000e+001
      vertex   -4.882499e+001 2.922966e+001 1.400000e+001
    endloop
  endfacet
  facet normal 0.000000e+000 -1.000000e+000 0.000000e+000
    outer loop
      vertex   -5.082499e+001 2.922966e+001 0.000000e+000
      vertex   -4.882499e+001 2.922966e+001 0.000000e+000
      vertex   -5.082499e+001 2.922966e+001 1.400000e+001
    endloop
  endfacet
  facet normal 0.000000e+000 -1.000000e+000 0.000000e+000
    outer loop
      vertex   -5.082499e+001 2.922966e+001 1.400000e+001
      vertex   -4.882499e+001 2.922966e+001 0.000000e+000
      vertex   -4.882499e+001 2.922966e+001 1.400000e+001
    endloop
  endfacet
  facet normal 1.000000e+000 -2.537653e-015 0.000000e+000
    outer loop
      vertex   -5.082499e+001 2.922966e+001 0.000000e+000
      vertex   -5.082499e+001 2.922966e+001 1.400000e+001
      vertex   -5.082499e+001 1.522966e+001 2.294118e-006
    endloop
  endfacet
  facet normal 1.000000e+000 -2.537653e-015 0.000000e+000
    outer loop
      vertex   -5.082499e+001 1.522966e+001 2.294118e-006
      vertex   -5.082499e+001 2.922966e+001 1.400000e+001
      vertex   -5.082499e+001 1.522966e+001 1.400000e+001
    endloop
  endfacet
  facet normal -0.000000e+000 1.000000e+000 0.000000e+000
    outer loop
      vertex   -5.482499e+001 4.322966e+001 1.400000e+001
      vertex   -5.282499e+001 4.322966e+001 1.400000e+001
      vertex   -5.482499e+001 4.322966e+001 0.000000e+000
    endloop
  endfacet
  facet normal -0.000000e+000 1.000000e+000 0.000000e+000
    outer loop
      vertex   -5.482499e+001 4.322966e+001 0.000000e+000
      vertex   -5.282499e+001 4.322966e+001 1.400000e+001
      vertex   -5.282499e+001 4.322966e+001 0.000000e+000
    endloop
  endfacet
  facet normal 0.000000e+000 -1.000000e+000 0.000000e+000
    outer loop
      vertex   -5.482499e+001 4.122966e+001 0.000000e+000
      vertex   -5.282499e+001 4.122966e+001 0.000000e+000
      vertex   -5.482499e+001 4.122966e+001 1.400000e+001
    endloop
  endfacet
  facet normal 0.000000e+000 -1.000000e+000 0.000000e+000
    outer loop
      vertex   -5.482499e+001 4.122966e+001 1.400000e+001
      vertex   -5.282499e+001 4.122966e+001 0.000000e+000
      vertex   -5.282499e+001 4.122966e+001 1.400000e+001
    endloop
  endfacet
  facet normal -1.000000e+000 -0.000000e+000 -0.000000e+000
    outer loop
      vertex   -5.482499e+001 4.322966e+001 1.400000e+001
      vertex   -5.482499e+001 4.322966e+001 0.000000e+000
      vertex   -5.482499e+001 4.122966e+001 1.400000e+001
    endloop
  endfacet
  facet normal -1.000000e+000 -0.000000e+000 -0.000000e+000
    outer loop
      vertex   -5.482499e+001 4.122966e+001 1.400000e+001
      vertex   -5.482499e+001 4.322966e+001 0.000000e+000
      vertex   -5.482499e+001 4.122966e+001 0.000000e+000
    endloop
  endfacet
  facet normal -1.000000e+000 7.601554e-006 -1.684287e-006
    outer loop
      vertex   -5.282499e+001 4.474060e+001 6.819197e+000
      vertex   -5.282499e+001 4.322966e+001 0.000000e+000
      vertex   -5.282499e+001 4.472966e+001 7.000002e+000
    endloop
  endfacet
  facet normal -1.000000e+000 -5.147736e-015 -9.433576e-016
    outer loop
      vertex   -5.282499e+001 4.474060e+001 6.819197e+000
      vertex   -5.282499e+001 4.477325e+001 6.641029e+000
      vertex   -5.282499e+001 4.322966e+001 0.000000e+000
    endloop
  endfacet
  facet normal -1.000000e+000 -3.933237e-015 -1.225646e-015
    outer loop
      vertex   -5.282499e+001 4.322966e+001 0.000000e+000
      vertex   -5.282499e+001 4.477325e+001 6.641029e+000
      vertex   -5.282499e+001 4.482714e+001 6.468095e+000
    endloop
  endfacet
  facet normal -1.000000e+000 -3.151992e-015 -1.418597e-015
    outer loop
      vertex   -5.282499e+001 4.490148e+001 6.302918e+000
      vertex   -5.282499e+001 4.322966e+001 0.000000e+000
      vertex   -5.282499e+001 4.482714e+001 6.468095e+000
    endloop
  endfacet
  facet normal -1.000000e+000 -2.592245e-015 -1.567067e-015
    outer loop
      vertex   -5.282499e+001 4.490148e+001 6.302918e+000
      vertex   -5.282499e+001 4.499519e+001 6.147905e+000
      vertex   -5.282499e+001 4.322966e+001 0.000000e+000
    endloop
  endfacet
  facet normal -1.000000e+000 -2.159015e-015 -1.691480e-015
    outer loop
      vertex   -5.282499e+001 4.322966e+001 0.000000e+000
      vertex   -5.282499e+001 4.499519e+001 6.147905e+000
      vertex   -5.282499e+001 4.510690e+001 6.005318e+000
    endloop
  endfacet
  facet normal -1.000000e+000 -1.802824e-015 -1.802824e-015
    outer loop
      vertex   -5.282499e+001 4.523498e+001 5.877236e+000
      vertex   -5.282499e+001 4.322966e+001 0.000000e+000
      vertex   -5.282499e+001 4.510690e+001 6.005318e+000
    endloop
  endfacet
  facet normal -1.000000e+000 -1.494769e-015 -1.907932e-015
    outer loop
      vertex   -5.282499e+001 4.523498e+001 5.877236e+000
      vertex   -5.282499e+001 4.537757e+001 5.765526e+000
      vertex   -5.282499e+001 4.322966e+001 0.000000e+000
    endloop
  endfacet
  facet normal -1.000000e+000 -1.216136e-015 -2.011735e-015
    outer loop
      vertex   -5.282499e+001 4.322966e+001 0.000000e+000
      vertex   -5.282499e+001 4.537757e+001 5.765526e+000
      vertex   -5.282499e+001 4.553258e+001 5.671818e+000
    endloop
  endfacet
  facet normal -1.000000e+000 -9.534172e-016 -2.118406e-015
    outer loop
      vertex   -5.282499e+001 4.569776e+001 5.597478e+000
      vertex   -5.282499e+001 4.322966e+001 0.000000e+000
      vertex   -5.282499e+001 4.553258e+001 5.671818e+000
    endloop
  endfacet
  facet normal -1.000000e+000 -6.955524e-016 -2.232106e-015
    outer loop
      vertex   -5.282499e+001 4.569776e+001 5.597478e+000
      vertex   -5.282499e+001 4.587069e+001 5.543590e+000
      vertex   -5.282499e+001 4.322966e+001 0.000000e+000
    endloop
  endfacet
  facet normal -1.000000e+000 -4.320536e-016 -2.357640e-015
    outer loop
      vertex   -5.282499e+001 4.322966e+001 0.000000e+000
      vertex   -5.282499e+001 4.587069e+001 5.543590e+000
      vertex   -5.282499e+001 4.604886e+001 5.510939e+000
    endloop
  endfacet
  facet normal -1.000000e+000 -1.512986e-016 -2.501264e-015
    outer loop
      vertex   -5.282499e+001 4.622966e+001 5.500002e+000
      vertex   -5.282499e+001 4.322966e+001 0.000000e+000
      vertex   -5.282499e+001 4.604886e+001 5.510939e+000
    endloop
  endfacet
  facet normal -1.000000e+000 1.616231e-016 -2.671949e-015
    outer loop
      vertex   -5.282499e+001 4.622966e+001 5.500002e+000
      vertex   -5.282499e+001 4.641047e+001 5.510939e+000
      vertex   -5.282499e+001 4.322966e+001 0.000000e+000
    endloop
  endfacet
  facet normal -1.000000e+000 5.284532e-016 -2.883676e-015
    outer loop
      vertex   -5.282499e+001 4.322966e+001 0.000000e+000
      vertex   -5.282499e+001 4.641047e+001 5.510939e+000
      vertex   -5.282499e+001 4.658864e+001 5.543590e+000
    endloop
  endfacet
  facet normal -1.000000e+000 9.847430e-016 -3.160151e-015
    outer loop
      vertex   -5.282499e+001 4.676157e+001 5.597478e+000
      vertex   -5.282499e+001 4.322966e+001 0.000000e+000
      vertex   -5.282499e+001 4.658864e+001 5.543590e+000
    endloop
  endfacet
  facet normal -1.000000e+000 1.595797e-015 -3.545716e-015
    outer loop
      vertex   -5.282499e+001 4.676157e+001 5.597478e+000
      vertex   -5.282499e+001 4.692675e+001 5.671818e+000
      vertex   -5.282499e+001 4.322966e+001 0.000000e+000
    endloop
  endfacet
  facet normal -1.000000e+000 -5.465711e-016 -2.149246e-015
    outer loop
      vertex   -5.282499e+001 4.322966e+001 0.000000e+000
      vertex   -5.282499e+001 4.692675e+001 5.671818e+000
      vertex   -5.282499e+001 6.922966e+001 2.294118e-006
    endloop
  endfacet
  facet normal -1.000000e+000 0.000000e+000 0.000000e+000
    outer loop
      vertex   -5.282499e+001 6.922966e+001 2.294118e-006
      vertex   -5.282499e+001 4.692675e+001 5.671818e+000
      vertex   -5.282499e+001 4.708176e+001 5.765526e+000
    endloop
  endfacet
  facet normal -1.000000e+000 -0.000000e+000 -0.000000e+000
    outer loop
      vertex   -5.282499e+001 4.722435e+001 5.877236e+000
      vertex   -5.282499e+001 6.922966e+001 2.294118e-006
      vertex   -5.282499e+001 4.708176e+001 5.765526e+000
    endloop
  endfacet
  facet normal -1.000000e+000 0.000000e+000 0.000000e+000
    outer loop
      vertex   -5.282499e+001 4.722435e+001 5.877236e+000
      vertex   -5.282499e+001 4.735243e+001 6.005318e+000
      vertex   -5.282499e+001 6.922966e+001 2.294118e-006
    endloop
  endfacet
  facet normal -1.000000e+000 0.000000e+000 0.000000e+000
    outer loop
      vertex   -5.282499e+001 6.922966e+001 2.294118e-006
      vertex   -5.282499e+001 4.735243e+001 6.005318e+000
      vertex   -5.282499e+001 4.746414e+001 6.147905e+000
    endloop
  endfacet
  facet normal -1.000000e+000 -0.000000e+000 -0.000000e+000
    outer loop
      vertex   -5.282499e+001 4.755785e+001 6.302918e+000
      vertex   -5.282499e+001 6.922966e+001 2.294118e-006
      vertex   -5.282499e+001 4.746414e+001 6.147905e+000
    endloop
  endfacet
  facet normal -1.000000e+000 0.000000e+000 0.000000e+000
    outer loop
      vertex   -5.282499e+001 4.755785e+001 6.302918e+000
      vertex   -5.282499e+001 4.763219e+001 6.468095e+000
      vertex   -5.282499e+001 6.922966e+001 2.294118e-006
    endloop
  endfacet
  facet normal -1.000000e+000 0.000000e+000 0.000000e+000
    outer loop
      vertex   -5.282499e+001 6.922966e+001 2.294118e-006
      vertex   -5.282499e+001 4.763219e+001 6.468095e+000
      vertex   -5.282499e+001 4.768608e+001 6.641029e+000
    endloop
  endfacet
  facet normal -1.000000e+000 -0.000000e+000 -0.000000e+000
    outer loop
      vertex   -5.282499e+001 4.771873e+001 6.819197e+000
      vertex   -5.282499e+001 6.922966e+001 2.294118e-006
      vertex   -5.282499e+001 4.768608e+001 6.641029e+000
    endloop
  endfacet
  facet normal -1.000000e+000 0.000000e+000 0.000000e+000
    outer loop
      vertex   -5.282499e+001 4.771873e+001 6.819197e+000
      vertex   -5.282499e+001 4.772966e+001 7.000002e+000
      vertex   -5.282499e+001 6.922966e+001 2.294118e-006
    endloop
  endfacet
  facet normal -1.000000e+000 0.000000e+000 0.000000e+000
    outer loop
      vertex   -5.282499e+001 6.922966e+001 2.294118e-006
      vertex   -5.282499e+001 4.772966e+001 7.000002e+000
      vertex   -5.282499e+001 6.922966e+001 1.400000e+001
    endloop
  endfacet
  facet normal -1.000000e+000 -0.000000e+000 0.000000e+000
    outer loop
      vertex   -5.282499e+001 6.922966e+001 1.400000e+001
      vertex   -5.282499e+001 4.772966e+001 7.000002e+000
      vertex   -5.282499e+001 4.771873e+001 7.180807e+000
    endloop
  endfacet
  facet normal -1.000000e+000 0.000000e+000 -0.000000e+000
    outer loop
      vertex   -5.282499e+001 4.768608e+001 7.358976e+000
      vertex   -5.282499e+001 6.922966e+001 1.400000e+001
      vertex   -5.282499e+001 4.771873e+001 7.180807e+000
    endloop
  endfacet
  facet normal -1.000000e+000 0.000000e+000 0.000000e+000
    outer loop
      vertex   -5.282499e+001 4.768608e+001 7.358976e+000
      vertex   -5.282499e+001 4.763219e+001 7.531910e+000
      vertex   -5.282499e+001 6.922966e+001 1.400000e+001
    endloop
  endfacet
  facet normal -1.000000e+000 -0.000000e+000 0.000000e+000
    outer loop
      vertex   -5.282499e+001 6.922966e+001 1.400000e+001
      vertex   -5.282499e+001 4.763219e+001 7.531910e+000
      vertex   -5.282499e+001 4.755785e+001 7.697087e+000
    endloop
  endfacet
  facet normal -1.000000e+000 0.000000e+000 -0.000000e+000
    outer loop
      vertex   -5.282499e+001 4.746414e+001 7.852099e+000
      vertex   -5.282499e+001 6.922966e+001 1.400000e+001
      vertex   -5.282499e+001 4.755785e+001 7.697087e+000
    endloop
  endfacet
  facet normal -1.000000e+000 0.000000e+000 0.000000e+000
    outer loop
      vertex   -5.282499e+001 4.746414e+001 7.852099e+000
      vertex   -5.282499e+001 4.735243e+001 7.994686e+000
      vertex   -5.282499e+001 6.922966e+001 1.400000e+001
    endloop
  endfacet
  facet normal -1.000000e+000 -0.000000e+000 0.000000e+000
    outer loop
      vertex   -5.282499e+001 6.922966e+001 1.400000e+001
      vertex   -5.282499e+001 4.735243e+001 7.994686e+000
      vertex   -5.282499e+001 4.722435e+001 8.122768e+000
    endloop
  endfacet
  facet normal -1.000000e+000 0.000000e+000 -0.000000e+000
    outer loop
      vertex   -5.282499e+001 4.708176e+001 8.234478e+000
      vertex   -5.282499e+001 6.922966e+001 1.400000e+001
      vertex   -5.282499e+001 4.722435e+001 8.122768e+000
    endloop
  endfacet
  facet normal -1.000000e+000 0.000000e+000 0.000000e+000
    outer loop
      vertex   -5.282499e+001 4.708176e+001 8.234478e+000
      vertex   -5.282499e+001 4.692675e+001 8.328186e+000
      vertex   -5.282499e+001 6.922966e+001 1.400000e+001
    endloop
  endfacet
  facet normal -1.000000e+000 -5.465713e-016 2.149247e-015
    outer loop
      vertex   -5.282499e+001 6.922966e+001 1.400000e+001
      vertex   -5.282499e+001 4.692675e+001 8.328186e+000
      vertex   -5.282499e+001 4.322966e+001 1.400000e+001
    endloop
  endfacet
  facet normal -1.000000e+000 1.595798e-015 3.545718e-015
    outer loop
      vertex   -5.282499e+001 4.322966e+001 1.400000e+001
      vertex   -5.282499e+001 4.692675e+001 8.328186e+000
      vertex   -5.282499e+001 4.676157e+001 8.402527e+000
    endloop
  endfacet
  facet normal -1.000000e+000 9.847436e-016 3.160153e-015
    outer loop
      vertex   -5.282499e+001 4.658864e+001 8.456415e+000
      vertex   -5.282499e+001 4.322966e+001 1.400000e+001
      vertex   -5.282499e+001 4.676157e+001 8.402527e+000
    endloop
  endfacet
  facet normal -1.000000e+000 5.284535e-016 2.883678e-015
    outer loop
      vertex   -5.282499e+001 4.658864e+001 8.456415e+000
      vertex   -5.282499e+001 4.641047e+001 8.489066e+000
      vertex   -5.282499e+001 4.322966e+001 1.400000e+001
    endloop
  endfacet
  facet normal -1.000000e+000 1.616232e-016 2.671950e-015
    outer loop
      vertex   -5.282499e+001 4.322966e+001 1.400000e+001
      vertex   -5.282499e+001 4.641047e+001 8.489066e+000
      vertex   -5.282499e+001 4.622966e+001 8.500002e+000
    endloop
  endfacet
  facet normal -1.000000e+000 -1.512987e-016 2.501265e-015
    outer loop
      vertex   -5.282499e+001 4.604886e+001 8.489066e+000
      vertex   -5.282499e+001 4.322966e+001 1.400000e+001
      vertex   -5.282499e+001 4.622966e+001 8.500002e+000
    endloop
  endfacet
  facet normal -1.000000e+000 -4.320538e-016 2.357641e-015
    outer loop
      vertex   -5.282499e+001 4.604886e+001 8.489066e+000
      vertex   -5.282499e+001 4.587069e+001 8.456415e+000
      vertex   -5.282499e+001 4.322966e+001 1.400000e+001
    endloop
  endfacet
  facet normal -1.000000e+000 -6.955527e-016 2.232107e-015
    outer loop
      vertex   -5.282499e+001 4.322966e+001 1.400000e+001
      vertex   -5.282499e+001 4.587069e+001 8.456415e+000
      vertex   -5.282499e+001 4.569776e+001 8.402527e+000
    endloop
  endfacet
  facet normal -1.000000e+000 -9.534175e-016 2.118407e-015
    outer loop
      vertex   -5.282499e+001 4.553258e+001 8.328186e+000
      vertex   -5.282499e+001 4.322966e+001 1.400000e+001
      vertex   -5.282499e+001 4.569776e+001 8.402527e+000
    endloop
  endfacet
  facet normal -1.000000e+000 -1.216137e-015 2.011736e-015
    outer loop
      vertex   -5.282499e+001 4.553258e+001 8.328186e+000
      vertex   -5.282499e+001 4.537757e+001 8.234478e+000
      vertex   -5.282499e+001 4.322966e+001 1.400000e+001
    endloop
  endfacet
  facet normal -1.000000e+000 -1.494770e-015 1.907933e-015
    outer loop
      vertex   -5.282499e+001 4.322966e+001 1.400000e+001
      vertex   -5.282499e+001 4.537757e+001 8.234478e+000
      vertex   -5.282499e+001 4.523498e+001 8.122768e+000
    endloop
  endfacet
  facet normal -1.000000e+000 -1.802824e-015 1.802824e-015
    outer loop
      vertex   -5.282499e+001 4.510690e+001 7.994686e+000
      vertex   -5.282499e+001 4.322966e+001 1.400000e+001
      vertex   -5.282499e+001 4.523498e+001 8.122768e+000
    endloop
  endfacet
  facet normal -1.000000e+000 -2.159015e-015 1.691480e-015
    outer loop
      vertex   -5.282499e+001 4.510690e+001 7.994686e+000
      vertex   -5.282499e+001 4.499519e+001 7.852099e+000
      vertex   -5.282499e+001 4.322966e+001 1.400000e+001
    endloop
  endfacet
  facet normal -1.000000e+000 -2.592246e-015 1.567067e-015
    outer loop
      vertex   -5.282499e+001 4.322966e+001 1.400000e+001
      vertex   -5.282499e+001 4.499519e+001 7.852099e+000
      vertex   -5.282499e+001 4.490148e+001 7.697087e+000
    endloop
  endfacet
  facet normal -1.000000e+000 -3.151993e-015 1.418597e-015
    outer loop
      vertex   -5.282499e+001 4.482714e+001 7.531910e+000
      vertex   -5.282499e+001 4.322966e+001 1.400000e+001
      vertex   -5.282499e+001 4.490148e+001 7.697087e+000
    endloop
  endfacet
  facet normal -1.000000e+000 -3.933238e-015 1.225647e-015
    outer loop
      vertex   -5.282499e+001 4.482714e+001 7.531910e+000
      vertex   -5.282499e+001 4.477325e+001 7.358976e+000
      vertex   -5.282499e+001 4.322966e+001 1.400000e+001
    endloop
  endfacet
  facet normal -1.000000e+000 -5.147737e-015 9.433578e-016
    outer loop
      vertex   -5.282499e+001 4.322966e+001 1.400000e+001
      vertex   -5.282499e+001 4.477325e+001 7.358976e+000
      vertex   -5.282499e+001 4.474060e+001 7.180807e+000
    endloop
  endfacet
  facet normal -1.000000e+000 7.601552e-006 1.684287e-006
    outer loop
      vertex   -5.282499e+001 4.472966e+001 7.000002e+000
      vertex   -5.282499e+001 4.322966e+001 1.400000e+001
      vertex   -5.282499e+001 4.474060e+001 7.180807e+000
    endloop
  endfacet
  facet normal -1.000000e+000 -2.584419e-007 0.000000e+000
    outer loop
      vertex   -5.282499e+001 4.472966e+001 7.000002e+000
      vertex   -5.282499e+001 4.322966e+001 0.000000e+000
      vertex   -5.282499e+001 4.322966e+001 1.400000e+001
    endloop
  endfacet
  facet normal 0.000000e+000 6.037850e-002 -9.981756e-001
    outer loop
      vertex   -5.082499e+001 4.604886e+001 8.489066e+000
      vertex   -5.282499e+001 4.604886e+001 8.489066e+000
      vertex   -5.082499e+001 4.622966e+001 8.500002e+000
    endloop
  endfacet
  facet normal 0.000000e+000 1.802550e-001 -9.836199e-001
    outer loop
      vertex   -5.082499e+001 4.604886e+001 8.489066e+000
      vertex   -5.282499e+001 4.587069e+001 8.456415e+000
      vertex   -5.282499e+001 4.604886e+001 8.489066e+000
    endloop
  endfacet
  facet normal 0.000000e+000 1.802550e-001 -9.836199e-001
    outer loop
      vertex   -5.082499e+001 4.604886e+001 8.489066e+000
      vertex   -5.082499e+001 4.587069e+001 8.456415e+000
      vertex   -5.282499e+001 4.587069e+001 8.456415e+000
    endloop
  endfacet
  facet normal 0.000000e+000 2.975031e-001 -9.547209e-001
    outer loop
      vertex   -5.282499e+001 4.587069e+001 8.456415e+000
      vertex   -5.082499e+001 4.587069e+001 8.456415e+000
      vertex   -5.282499e+001 4.569776e+001 8.402527e+000
    endloop
  endfacet
  facet normal 0.000000e+000 2.975031e-001 -9.547209e-001
    outer loop
      vertex   -5.282499e+001 4.569776e+001 8.402527e+000
      vertex   -5.082499e+001 4.587069e+001 8.456415e+000
      vertex   -5.082499e+001 4.569776e+001 8.402527e+000
    endloop
  endfacet
  facet normal 1.455695e-015 4.104128e-001 -9.118998e-001
    outer loop
      vertex   -5.282499e+001 4.553258e+001 8.328186e+000
      vertex   -5.082499e+001 4.569776e+001 8.402527e+000
      vertex   -5.082499e+001 4.553258e+001 8.328186e+000
    endloop
  endfacet
  facet normal 0.000000e+000 5.173378e-001 -8.557813e-001
    outer loop
      vertex   -5.282499e+001 4.537757e+001 8.234478e+000
      vertex   -5.082499e+001 4.553258e+001 8.328186e+000
      vertex   -5.082499e+001 4.537757e+001 8.234478e+000
    endloop
  endfacet
  facet normal -6.991165e-016 6.167189e-001 -7.871835e-001
    outer loop
      vertex   -5.282499e+001 4.523498e+001 8.122768e+000
      vertex   -5.082499e+001 4.537757e+001 8.234478e+000
      vertex   -5.082499e+001 4.523498e+001 8.122768e+000
    endloop
  endfacet
  facet normal -6.225010e-016 7.071068e-001 -7.071068e-001
    outer loop
      vertex   -5.282499e+001 4.510690e+001 7.994686e+000
      vertex   -5.082499e+001 4.523498e+001 8.122768e+000
      vertex   -5.082499e+001 4.510690e+001 7.994686e+000
    endloop
  endfacet
  facet normal 0.000000e+000 7.871835e-001 -6.167189e-001
    outer loop
      vertex   -5.282499e+001 4.499519e+001 7.852099e+000
      vertex   -5.082499e+001 4.510690e+001 7.994686e+000
      vertex   -5.082499e+001 4.499519e+001 7.852099e+000
    endloop
  endfacet
  facet normal 2.580985e-015 8.557813e-001 -5.173378e-001
    outer loop
      vertex   -5.282499e+001 4.490148e+001 7.697087e+000
      vertex   -5.082499e+001 4.499519e+001 7.852099e+000
      vertex   -5.082499e+001 4.490148e+001 7.697087e+000
    endloop
  endfacet
  facet normal -1.819618e-016 9.118998e-001 -4.104128e-001
    outer loop
      vertex   -5.282499e+001 4.482714e+001 7.531910e+000
      vertex   -5.082499e+001 4.490148e+001 7.697087e+000
      vertex   -5.082499e+001 4.482714e+001 7.531910e+000
    endloop
  endfacet
  facet normal -1.340771e-016 9.547209e-001 -2.975031e-001
    outer loop
      vertex   -5.282499e+001 4.477325e+001 7.358976e+000
      vertex   -5.082499e+001 4.482714e+001 7.531910e+000
      vertex   -5.082499e+001 4.477325e+001 7.358976e+000
    endloop
  endfacet
  facet normal -1.604137e-016 9.836199e-001 -1.802550e-001
    outer loop
      vertex   -5.282499e+001 4.474060e+001 7.180807e+000
      vertex   -5.082499e+001 4.477325e+001 7.358976e+000
      vertex   -5.082499e+001 4.474060e+001 7.180807e+000
    endloop
  endfacet
  facet normal -5.362688e-017 9.981756e-001 -6.037850e-002
    outer loop
      vertex   -5.082499e+001 4.472966e+001 7.000002e+000
      vertex   -5.282499e+001 4.474060e+001 7.180807e+000
      vertex   -5.082499e+001 4.474060e+001 7.180807e+000
    endloop
  endfacet
  facet normal 7.092463e-015 9.981756e-001 -6.037850e-002
    outer loop
      vertex   -5.082499e+001 4.472966e+001 7.000002e+000
      vertex   -5.282499e+001 4.472966e+001 7.000002e+000
      vertex   -5.282499e+001 4.474060e+001 7.180807e+000
    endloop
  endfacet
  facet normal 7.092919e-015 9.981756e-001 6.037850e-002
    outer loop
      vertex   -5.082499e+001 4.472966e+001 7.000002e+000
      vertex   -5.282499e+001 4.474060e+001 6.819197e+000
      vertex   -5.282499e+001 4.472966e+001 7.000002e+000
    endloop
  endfacet
  facet normal 2.681344e-017 9.981756e-001 6.037850e-002
    outer loop
      vertex   -5.082499e+001 4.472966e+001 7.000002e+000
      vertex   -5.082499e+001 4.474060e+001 6.819197e+000
      vertex   -5.282499e+001 4.474060e+001 6.819197e+000
    endloop
  endfacet
  facet normal 8.004932e-017 9.836199e-001 1.802550e-001
    outer loop
      vertex   -5.282499e+001 4.474060e+001 6.819197e+000
      vertex   -5.082499e+001 4.474060e+001 6.819197e+000
      vertex   -5.282499e+001 4.477325e+001 6.641029e+000
    endloop
  endfacet
  facet normal 0.000000e+000 9.836199e-001 1.802550e-001
    outer loop
      vertex   -5.282499e+001 4.477325e+001 6.641029e+000
      vertex   -5.082499e+001 4.474060e+001 6.819197e+000
      vertex   -5.082499e+001 4.477325e+001 6.641029e+000
    endloop
  endfacet
  facet normal 1.292887e-016 9.547209e-001 2.975031e-001
    outer loop
      vertex   -5.282499e+001 4.482714e+001 6.468095e+000
      vertex   -5.082499e+001 4.477325e+001 6.641029e+000
      vertex   -5.082499e+001 4.482714e+001 6.468095e+000
    endloop
  endfacet
  facet normal -3.241794e-015 9.118998e-001 4.104128e-001
    outer loop
      vertex   -5.282499e+001 4.490148e+001 6.302918e+000
      vertex   -5.082499e+001 4.482714e+001 6.468095e+000
      vertex   -5.082499e+001 4.490148e+001 6.302918e+000
    endloop
  endfacet
  facet normal 0.000000e+000 8.557813e-001 5.173378e-001
    outer loop
      vertex   -5.282499e+001 4.499519e+001 6.147905e+000
      vertex   -5.082499e+001 4.490148e+001 6.302918e+000
      vertex   -5.082499e+001 4.499519e+001 6.147905e+000
    endloop
  endfacet
  facet normal 0.000000e+000 7.871835e-001 6.167189e-001
    outer loop
      vertex   -5.282499e+001 4.510690e+001 6.005318e+000
      vertex   -5.082499e+001 4.499519e+001 6.147905e+000
      vertex   -5.082499e+001 4.510690e+001 6.005318e+000
    endloop
  endfacet
  facet normal 0.000000e+000 7.071068e-001 7.071068e-001
    outer loop
      vertex   -5.282499e+001 4.523498e+001 5.877236e+000
      vertex   -5.082499e+001 4.510690e+001 6.005318e+000
      vertex   -5.082499e+001 4.523498e+001 5.877236e+000
    endloop
  endfacet
  facet normal 0.000000e+000 6.167189e-001 7.871835e-001
    outer loop
      vertex   -5.282499e+001 4.537757e+001 5.765526e+000
      vertex   -5.082499e+001 4.523498e+001 5.877236e+000
      vertex   -5.082499e+001 4.537757e+001 5.765526e+000
    endloop
  endfacet
  facet normal 0.000000e+000 5.173378e-001 8.557813e-001
    outer loop
      vertex   -5.282499e+001 4.553258e+001 5.671818e+000
      vertex   -5.082499e+001 4.537757e+001 5.765526e+000
      vertex   -5.082499e+001 4.553258e+001 5.671818e+000
    endloop
  endfacet
  facet normal 0.000000e+000 4.104128e-001 9.118998e-001
    outer loop
      vertex   -5.282499e+001 4.569776e+001 5.597478e+000
      vertex   -5.082499e+001 4.553258e+001 5.671818e+000
      vertex   -5.082499e+001 4.569776e+001 5.597478e+000
    endloop
  endfacet
  facet normal 0.000000e+000 2.975031e-001 9.547209e-001
    outer loop
      vertex   -5.282499e+001 4.587069e+001 5.543590e+000
      vertex   -5.082499e+001 4.569776e+001 5.597478e+000
      vertex   -5.082499e+001 4.587069e+001 5.543590e+000
    endloop
  endfacet
  facet normal 0.000000e+000 1.802550e-001 9.836199e-001
    outer loop
      vertex   -5.282499e+001 4.604886e+001 5.510939e+000
      vertex   -5.082499e+001 4.587069e+001 5.543590e+000
      vertex   -5.082499e+001 4.604886e+001 5.510939e+000
    endloop
  endfacet
  facet normal 0.000000e+000 6.037850e-002 9.981756e-001
    outer loop
      vertex   -5.282499e+001 4.622966e+001 5.500002e+000
      vertex   -5.082499e+001 4.604886e+001 5.510939e+000
      vertex   -5.082499e+001 4.622966e+001 5.500002e+000
    endloop
  endfacet
  facet normal 0.000000e+000 -6.037850e-002 9.981756e-001
    outer loop
      vertex   -5.282499e+001 4.641047e+001 5.510939e+000
      vertex   -5.082499e+001 4.622966e+001 5.500002e+000
      vertex   -5.082499e+001 4.641047e+001 5.510939e+000
    endloop
  endfacet
  facet normal 0.000000e+000 -1.802550e-001 9.836199e-001
    outer loop
      vertex   -5.282499e+001 4.658864e+001 5.543590e+000
      vertex   -5.082499e+001 4.641047e+001 5.510939e+000
      vertex   -5.082499e+001 4.658864e+001 5.543590e+000
    endloop
  endfacet
  facet normal 0.000000e+000 -2.975031e-001 9.547209e-001
    outer loop
      vertex   -5.282499e+001 4.676157e+001 5.597478e+000
      vertex   -5.082499e+001 4.658864e+001 5.543590e+000
      vertex   -5.082499e+001 4.676157e+001 5.597478e+000
    endloop
  endfacet
  facet normal 0.000000e+000 -4.104128e-001 9.118998e-001
    outer loop
      vertex   -5.282499e+001 4.692675e+001 5.671818e+000
      vertex   -5.082499e+001 4.676157e+001 5.597478e+000
      vertex   -5.082499e+001 4.692675e+001 5.671818e+000
    endloop
  endfacet
  facet normal 0.000000e+000 -5.173378e-001 8.557813e-001
    outer loop
      vertex   -5.282499e+001 4.708176e+001 5.765526e+000
      vertex   -5.082499e+001 4.692675e+001 5.671818e+000
      vertex   -5.082499e+001 4.708176e+001 5.765526e+000
    endloop
  endfacet
  facet normal 0.000000e+000 -6.167189e-001 7.871835e-001
    outer loop
      vertex   -5.282499e+001 4.722435e+001 5.877236e+000
      vertex   -5.082499e+001 4.708176e+001 5.765526e+000
      vertex   -5.082499e+001 4.722435e+001 5.877236e+000
    endloop
  endfacet
  facet normal 0.000000e+000 -7.071068e-001 7.071068e-001
    outer loop
      vertex   -5.282499e+001 4.735243e+001 6.005318e+000
      vertex   -5.082499e+001 4.722435e+001 5.877236e+000
      vertex   -5.082499e+001 4.735243e+001 6.005318e+000
    endloop
  endfacet
  facet normal 0.000000e+000 -7.871835e-001 6.167189e-001
    outer loop
      vertex   -5.282499e+001 4.746414e+001 6.147905e+000
      vertex   -5.082499e+001 4.735243e+001 6.005318e+000
      vertex   -5.082499e+001 4.746414e+001 6.147905e+000
    endloop
  endfacet
  facet normal 0.000000e+000 -8.557813e-001 5.173378e-001
    outer loop
      vertex   -5.282499e+001 4.755785e+001 6.302918e+000
      vertex   -5.082499e+001 4.746414e+001 6.147905e+000
      vertex   -5.082499e+001 4.755785e+001 6.302918e+000
    endloop
  endfacet
  facet normal -1.819618e-016 -9.118998e-001 4.104128e-001
    outer loop
      vertex   -5.282499e+001 4.763219e+001 6.468095e+000
      vertex   -5.082499e+001 4.755785e+001 6.302918e+000
      vertex   -5.082499e+001 4.763219e+001 6.468095e+000
    endloop
  endfacet
  facet normal -1.340771e-016 -9.547209e-001 2.975031e-001
    outer loop
      vertex   -5.282499e+001 4.768608e+001 6.641029e+000
      vertex   -5.082499e+001 4.763219e+001 6.468095e+000
      vertex   -5.082499e+001 4.768608e+001 6.641029e+000
    endloop
  endfacet
  facet normal -7.900974e-017 -9.836199e-001 1.802550e-001
    outer loop
      vertex   -5.282499e+001 4.771873e+001 6.819197e+000
      vertex   -5.082499e+001 4.768608e+001 6.641029e+000
      vertex   -5.082499e+001 4.771873e+001 6.819197e+000
    endloop
  endfacet
  facet normal 0.000000e+000 -9.981756e-001 6.037850e-002
    outer loop
      vertex   -5.282499e+001 4.772966e+001 7.000002e+000
      vertex   -5.082499e+001 4.771873e+001 6.819197e+000
      vertex   -5.082499e+001 4.772966e+001 7.000002e+000
    endloop
  endfacet
  facet normal 0.000000e+000 -9.981756e-001 -6.037850e-002
    outer loop
      vertex   -5.282499e+001 4.771873e+001 7.180807e+000
      vertex   -5.082499e+001 4.772966e+001 7.000002e+000
      vertex   -5.082499e+001 4.771873e+001 7.180807e+000
    endloop
  endfacet
  facet normal 0.000000e+000 -9.836199e-001 -1.802550e-001
    outer loop
      vertex   -5.282499e+001 4.768608e+001 7.358976e+000
      vertex   -5.082499e+001 4.771873e+001 7.180807e+000
      vertex   -5.082499e+001 4.768608e+001 7.358976e+000
    endloop
  endfacet
  facet normal 0.000000e+000 -9.547209e-001 -2.975031e-001
    outer loop
      vertex   -5.282499e+001 4.763219e+001 7.531910e+000
      vertex   -5.082499e+001 4.768608e+001 7.358976e+000
      vertex   -5.082499e+001 4.763219e+001 7.531910e+000
    endloop
  endfacet
  facet normal 0.000000e+000 -9.118998e-001 -4.104128e-001
    outer loop
      vertex   -5.282499e+001 4.755785e+001 7.697087e+000
      vertex   -5.082499e+001 4.763219e+001 7.531910e+000
      vertex   -5.082499e+001 4.755785e+001 7.697087e+000
    endloop
  endfacet
  facet normal 0.000000e+000 -8.557813e-001 -5.173378e-001
    outer loop
      vertex   -5.282499e+001 4.746414e+001 7.852099e+000
      vertex   -5.082499e+001 4.755785e+001 7.697087e+000
      vertex   -5.082499e+001 4.746414e+001 7.852099e+000
    endloop
  endfacet
  facet normal 2.681543e-016 -7.871835e-001 -6.167189e-001
    outer loop
      vertex   -5.282499e+001 4.735243e+001 7.994686e+000
      vertex   -5.082499e+001 4.746414e+001 7.852099e+000
      vertex   -5.082499e+001 4.735243e+001 7.994686e+000
    endloop
  endfacet
  facet normal 0.000000e+000 -7.071068e-001 -7.071068e-001
    outer loop
      vertex   -5.282499e+001 4.722435e+001 8.122768e+000
      vertex   -5.082499e+001 4.735243e+001 7.994686e+000
      vertex   -5.082499e+001 4.722435e+001 8.122768e+000
    endloop
  endfacet
  facet normal 0.000000e+000 -6.167189e-001 -7.871835e-001
    outer loop
      vertex   -5.282499e+001 4.708176e+001 8.234478e+000
      vertex   -5.082499e+001 4.722435e+001 8.122768e+000
      vertex   -5.082499e+001 4.708176e+001 8.234478e+000
    endloop
  endfacet
  facet normal -1.838772e-015 -5.173378e-001 -8.557813e-001
    outer loop
      vertex   -5.282499e+001 4.692675e+001 8.328186e+000
      vertex   -5.082499e+001 4.708176e+001 8.234478e+000
      vertex   -5.082499e+001 4.692675e+001 8.328186e+000
    endloop
  endfacet
  facet normal 0.000000e+000 -4.104128e-001 -9.118998e-001
    outer loop
      vertex   -5.282499e+001 4.676157e+001 8.402527e+000
      vertex   -5.082499e+001 4.692675e+001 8.328186e+000
      vertex   -5.082499e+001 4.676157e+001 8.402527e+000
    endloop
  endfacet
  facet normal 0.000000e+000 -2.975031e-001 -9.547209e-001
    outer loop
      vertex   -5.282499e+001 4.658864e+001 8.456415e+000
      vertex   -5.082499e+001 4.676157e+001 8.402527e+000
      vertex   -5.082499e+001 4.658864e+001 8.456415e+000
    endloop
  endfacet
  facet normal 0.000000e+000 -1.802550e-001 -9.836199e-001
    outer loop
      vertex   -5.282499e+001 4.641047e+001 8.489066e+000
      vertex   -5.082499e+001 4.658864e+001 8.456415e+000
      vertex   -5.082499e+001 4.641047e+001 8.489066e+000
    endloop
  endfacet
  facet normal -8.858668e-016 -6.037850e-002 -9.981756e-001
    outer loop
      vertex   -5.282499e+001 4.622966e+001 8.500002e+000
      vertex   -5.082499e+001 4.641047e+001 8.489066e+000
      vertex   -5.082499e+001 4.622966e+001 8.500002e+000
    endloop
  endfacet
  facet normal -8.865580e-016 6.037850e-002 -9.981756e-001
    outer loop
      vertex   -5.282499e+001 4.604886e+001 8.489066e+000
      vertex   -5.282499e+001 4.622966e+001 8.500002e+000
      vertex   -5.082499e+001 4.622966e+001 8.500002e+000
    endloop
  endfacet
  facet normal 0.000000e+000 4.104128e-001 -9.118998e-001
    outer loop
      vertex   -5.282499e+001 4.569776e+001 8.402527e+000
      vertex   -5.082499e+001 4.569776e+001 8.402527e+000
      vertex   -5.282499e+001 4.553258e+001 8.328186e+000
    endloop
  endfacet
  facet normal 1.837953e-015 5.173378e-001 -8.557813e-001
    outer loop
      vertex   -5.282499e+001 4.553258e+001 8.328186e+000
      vertex   -5.082499e+001 4.553258e+001 8.328186e+000
      vertex   -5.282499e+001 4.537757e+001 8.234478e+000
    endloop
  endfacet
  facet normal 0.000000e+000 6.167189e-001 -7.871835e-001
    outer loop
      vertex   -5.282499e+001 4.537757e+001 8.234478e+000
      vertex   -5.082499e+001 4.537757e+001 8.234478e+000
      vertex   -5.282499e+001 4.523498e+001 8.122768e+000
    endloop
  endfacet
  facet normal -6.280370e-016 7.071068e-001 -7.071068e-001
    outer loop
      vertex   -5.282499e+001 4.523498e+001 8.122768e+000
      vertex   -5.082499e+001 4.523498e+001 8.122768e+000
      vertex   -5.282499e+001 4.510690e+001 7.994686e+000
    endloop
  endfacet
  facet normal -5.477564e-016 7.871835e-001 -6.167189e-001
    outer loop
      vertex   -5.282499e+001 4.510690e+001 7.994686e+000
      vertex   -5.082499e+001 4.510690e+001 7.994686e+000
      vertex   -5.282499e+001 4.499519e+001 7.852099e+000
    endloop
  endfacet
  facet normal 0.000000e+000 8.557813e-001 -5.173378e-001
    outer loop
      vertex   -5.282499e+001 4.499519e+001 7.852099e+000
      vertex   -5.082499e+001 4.499519e+001 7.852099e+000
      vertex   -5.282499e+001 4.490148e+001 7.697087e+000
    endloop
  endfacet
  facet normal 2.875199e-015 9.118998e-001 -4.104128e-001
    outer loop
      vertex   -5.282499e+001 4.490148e+001 7.697087e+000
      vertex   -5.082499e+001 4.490148e+001 7.697087e+000
      vertex   -5.282499e+001 4.482714e+001 7.531910e+000
    endloop
  endfacet
  facet normal -1.321179e-016 9.547209e-001 -2.975031e-001
    outer loop
      vertex   -5.282499e+001 4.482714e+001 7.531910e+000
      vertex   -5.082499e+001 4.482714e+001 7.531910e+000
      vertex   -5.282499e+001 4.477325e+001 7.358976e+000
    endloop
  endfacet
  facet normal -8.004932e-017 9.836199e-001 -1.802550e-001
    outer loop
      vertex   -5.282499e+001 4.477325e+001 7.358976e+000
      vertex   -5.082499e+001 4.477325e+001 7.358976e+000
      vertex   -5.282499e+001 4.474060e+001 7.180807e+000
    endloop
  endfacet
  facet normal -0.000000e+000 9.547209e-001 2.975031e-001
    outer loop
      vertex   -5.282499e+001 4.477325e+001 6.641029e+000
      vertex   -5.082499e+001 4.477325e+001 6.641029e+000
      vertex   -5.282499e+001 4.482714e+001 6.468095e+000
    endloop
  endfacet
  facet normal 1.822599e-016 9.118998e-001 4.104128e-001
    outer loop
      vertex   -5.282499e+001 4.482714e+001 6.468095e+000
      vertex   -5.082499e+001 4.482714e+001 6.468095e+000
      vertex   -5.282499e+001 4.490148e+001 6.302918e+000
    endloop
  endfacet
  facet normal -3.040346e-015 8.557813e-001 5.173378e-001
    outer loop
      vertex   -5.282499e+001 4.490148e+001 6.302918e+000
      vertex   -5.082499e+001 4.490148e+001 6.302918e+000
      vertex   -5.282499e+001 4.499519e+001 6.147905e+000
    endloop
  endfacet
  facet normal -0.000000e+000 7.871835e-001 6.167189e-001
    outer loop
      vertex   -5.282499e+001 4.499519e+001 6.147905e+000
      vertex   -5.082499e+001 4.499519e+001 6.147905e+000
      vertex   -5.282499e+001 4.510690e+001 6.005318e+000
    endloop
  endfacet
  facet normal -0.000000e+000 7.071068e-001 7.071068e-001
    outer loop
      vertex   -5.282499e+001 4.510690e+001 6.005318e+000
      vertex   -5.082499e+001 4.510690e+001 6.005318e+000
      vertex   -5.282499e+001 4.523498e+001 5.877236e+000
    endloop
  endfacet
  facet normal -0.000000e+000 6.167189e-001 7.871835e-001
    outer loop
      vertex   -5.282499e+001 4.523498e+001 5.877236e+000
      vertex   -5.082499e+001 4.523498e+001 5.877236e+000
      vertex   -5.282499e+001 4.537757e+001 5.765526e+000
    endloop
  endfacet
  facet normal -0.000000e+000 5.173378e-001 8.557813e-001
    outer loop
      vertex   -5.282499e+001 4.537757e+001 5.765526e+000
      vertex   -5.082499e+001 4.537757e+001 5.765526e+000
      vertex   -5.282499e+001 4.553258e+001 5.671818e+000
    endloop
  endfacet
  facet normal -0.000000e+000 4.104128e-001 9.118998e-001
    outer loop
      vertex   -5.282499e+001 4.553258e+001 5.671818e+000
      vertex   -5.082499e+001 4.553258e+001 5.671818e+000
      vertex   -5.282499e+001 4.569776e+001 5.597478e+000
    endloop
  endfacet
  facet normal -0.000000e+000 2.975031e-001 9.547209e-001
    outer loop
      vertex   -5.282499e+001 4.569776e+001 5.597478e+000
      vertex   -5.082499e+001 4.569776e+001 5.597478e+000
      vertex   -5.282499e+001 4.587069e+001 5.543590e+000
    endloop
  endfacet
  facet normal -0.000000e+000 1.802550e-001 9.836199e-001
    outer loop
      vertex   -5.282499e+001 4.587069e+001 5.543590e+000
      vertex   -5.082499e+001 4.587069e+001 5.543590e+000
      vertex   -5.282499e+001 4.604886e+001 5.510939e+000
    endloop
  endfacet
  facet normal -0.000000e+000 6.037850e-002 9.981756e-001
    outer loop
      vertex   -5.282499e+001 4.604886e+001 5.510939e+000
      vertex   -5.082499e+001 4.604886e+001 5.510939e+000
      vertex   -5.282499e+001 4.622966e+001 5.500002e+000
    endloop
  endfacet
  facet normal 0.000000e+000 -6.037850e-002 9.981756e-001
    outer loop
      vertex   -5.282499e+001 4.622966e+001 5.500002e+000
      vertex   -5.082499e+001 4.622966e+001 5.500002e+000
      vertex   -5.282499e+001 4.641047e+001 5.510939e+000
    endloop
  endfacet
  facet normal 0.000000e+000 -1.802550e-001 9.836199e-001
    outer loop
      vertex   -5.282499e+001 4.641047e+001 5.510939e+000
      vertex   -5.082499e+001 4.641047e+001 5.510939e+000
      vertex   -5.282499e+001 4.658864e+001 5.543590e+000
    endloop
  endfacet
  facet normal 0.000000e+000 -2.975031e-001 9.547209e-001
    outer loop
      vertex   -5.282499e+001 4.658864e+001 5.543590e+000
      vertex   -5.082499e+001 4.658864e+001 5.543590e+000
      vertex   -5.282499e+001 4.676157e+001 5.597478e+000
    endloop
  endfacet
  facet normal 0.000000e+000 -4.104128e-001 9.118998e-001
    outer loop
      vertex   -5.282499e+001 4.676157e+001 5.597478e+000
      vertex   -5.082499e+001 4.676157e+001 5.597478e+000
      vertex   -5.282499e+001 4.692675e+001 5.671818e+000
    endloop
  endfacet
  facet normal 0.000000e+000 -5.173378e-001 8.557813e-001
    outer loop
      vertex   -5.282499e+001 4.692675e+001 5.671818e+000
      vertex   -5.082499e+001 4.692675e+001 5.671818e+000
      vertex   -5.282499e+001 4.708176e+001 5.765526e+000
    endloop
  endfacet
  facet normal 0.000000e+000 -6.167189e-001 7.871835e-001
    outer loop
      vertex   -5.282499e+001 4.708176e+001 5.765526e+000
      vertex   -5.082499e+001 4.708176e+001 5.765526e+000
      vertex   -5.282499e+001 4.722435e+001 5.877236e+000
    endloop
  endfacet
  facet normal 0.000000e+000 -7.071068e-001 7.071068e-001
    outer loop
      vertex   -5.282499e+001 4.722435e+001 5.877236e+000
      vertex   -5.082499e+001 4.722435e+001 5.877236e+000
      vertex   -5.282499e+001 4.735243e+001 6.005318e+000
    endloop
  endfacet
  facet normal 0.000000e+000 -7.871835e-001 6.167189e-001
    outer loop
      vertex   -5.282499e+001 4.735243e+001 6.005318e+000
      vertex   -5.082499e+001 4.735243e+001 6.005318e+000
      vertex   -5.282499e+001 4.746414e+001 6.147905e+000
    endloop
  endfacet
  facet normal 0.000000e+000 -8.557813e-001 5.173378e-001
    outer loop
      vertex   -5.282499e+001 4.746414e+001 6.147905e+000
      vertex   -5.082499e+001 4.746414e+001 6.147905e+000
      vertex   -5.282499e+001 4.755785e+001 6.302918e+000
    endloop
  endfacet
  facet normal 0.000000e+000 -9.118998e-001 4.104128e-001
    outer loop
      vertex   -5.282499e+001 4.755785e+001 6.302918e+000
      vertex   -5.082499e+001 4.755785e+001 6.302918e+000
      vertex   -5.282499e+001 4.763219e+001 6.468095e+000
    endloop
  endfacet
  facet normal -1.321179e-016 -9.547209e-001 2.975031e-001
    outer loop
      vertex   -5.282499e+001 4.763219e+001 6.468095e+000
      vertex   -5.082499e+001 4.763219e+001 6.468095e+000
      vertex   -5.282499e+001 4.768608e+001 6.641029e+000
    endloop
  endfacet
  facet normal -8.004932e-017 -9.836199e-001 1.802550e-001
    outer loop
      vertex   -5.282499e+001 4.768608e+001 6.641029e+000
      vertex   -5.082499e+001 4.768608e+001 6.641029e+000
      vertex   -5.282499e+001 4.771873e+001 6.819197e+000
    endloop
  endfacet
  facet normal -2.681344e-017 -9.981756e-001 6.037850e-002
    outer loop
      vertex   -5.282499e+001 4.771873e+001 6.819197e+000
      vertex   -5.082499e+001 4.771873e+001 6.819197e+000
      vertex   -5.282499e+001 4.772966e+001 7.000002e+000
    endloop
  endfacet
  facet normal 0.000000e+000 -9.981756e-001 -6.037850e-002
    outer loop
      vertex   -5.282499e+001 4.772966e+001 7.000002e+000
      vertex   -5.082499e+001 4.772966e+001 7.000002e+000
      vertex   -5.282499e+001 4.771873e+001 7.180807e+000
    endloop
  endfacet
  facet normal 0.000000e+000 -9.836199e-001 -1.802550e-001
    outer loop
      vertex   -5.282499e+001 4.771873e+001 7.180807e+000
      vertex   -5.082499e+001 4.771873e+001 7.180807e+000
      vertex   -5.282499e+001 4.768608e+001 7.358976e+000
    endloop
  endfacet
  facet normal 0.000000e+000 -9.547209e-001 -2.975031e-001
    outer loop
      vertex   -5.282499e+001 4.768608e+001 7.358976e+000
      vertex   -5.082499e+001 4.768608e+001 7.358976e+000
      vertex   -5.282499e+001 4.763219e+001 7.531910e+000
    endloop
  endfacet
  facet normal 0.000000e+000 -9.118998e-001 -4.104128e-001
    outer loop
      vertex   -5.282499e+001 4.763219e+001 7.531910e+000
      vertex   -5.082499e+001 4.763219e+001 7.531910e+000
      vertex   -5.282499e+001 4.755785e+001 7.697087e+000
    endloop
  endfacet
  facet normal 0.000000e+000 -8.557813e-001 -5.173378e-001
    outer loop
      vertex   -5.282499e+001 4.755785e+001 7.697087e+000
      vertex   -5.082499e+001 4.755785e+001 7.697087e+000
      vertex   -5.282499e+001 4.746414e+001 7.852099e+000
    endloop
  endfacet
  facet normal 0.000000e+000 -7.871835e-001 -6.167189e-001
    outer loop
      vertex   -5.282499e+001 4.746414e+001 7.852099e+000
      vertex   -5.082499e+001 4.746414e+001 7.852099e+000
      vertex   -5.282499e+001 4.735243e+001 7.994686e+000
    endloop
  endfacet
  facet normal 3.140185e-016 -7.071068e-001 -7.071068e-001
    outer loop
      vertex   -5.282499e+001 4.735243e+001 7.994686e+000
      vertex   -5.082499e+001 4.735243e+001 7.994686e+000
      vertex   -5.282499e+001 4.722435e+001 8.122768e+000
    endloop
  endfacet
  facet normal 0.000000e+000 -6.167189e-001 -7.871835e-001
    outer loop
      vertex   -5.282499e+001 4.722435e+001 8.122768e+000
      vertex   -5.082499e+001 4.722435e+001 8.122768e+000
      vertex   -5.282499e+001 4.708176e+001 8.234478e+000
    endloop
  endfacet
  facet normal 0.000000e+000 -5.173378e-001 -8.557813e-001
    outer loop
      vertex   -5.282499e+001 4.708176e+001 8.234478e+000
      vertex   -5.082499e+001 4.708176e+001 8.234478e+000
      vertex   -5.282499e+001 4.692675e+001 8.328186e+000
    endloop
  endfacet
  facet normal -1.458079e-015 -4.104128e-001 -9.118998e-001
    outer loop
      vertex   -5.282499e+001 4.692675e+001 8.328186e+000
      vertex   -5.082499e+001 4.692675e+001 8.328186e+000
      vertex   -5.282499e+001 4.676157e+001 8.402527e+000
    endloop
  endfacet
  facet normal 0.000000e+000 -2.975031e-001 -9.547209e-001
    outer loop
      vertex   -5.282499e+001 4.676157e+001 8.402527e+000
      vertex   -5.082499e+001 4.676157e+001 8.402527e+000
      vertex   -5.282499e+001 4.658864e+001 8.456415e+000
    endloop
  endfacet
  facet normal 0.000000e+000 -1.802550e-001 -9.836199e-001
    outer loop
      vertex   -5.282499e+001 4.658864e+001 8.456415e+000
      vertex   -5.082499e+001 4.658864e+001 8.456415e+000
      vertex   -5.282499e+001 4.641047e+001 8.489066e+000
    endloop
  endfacet
  facet normal 0.000000e+000 -6.037850e-002 -9.981756e-001
    outer loop
      vertex   -5.282499e+001 4.641047e+001 8.489066e+000
      vertex   -5.082499e+001 4.641047e+001 8.489066e+000
      vertex   -5.282499e+001 4.622966e+001 8.500002e+000
    endloop
  endfacet
  facet normal 7.105427e-015 1.000000e+000 0.000000e+000
    outer loop
      vertex   -5.082499e+001 6.922966e+001 1.400000e+001
      vertex   -5.082499e+001 6.922966e+001 2.294118e-006
      vertex   -5.282499e+001 6.922966e+001 1.400000e+001
    endloop
  endfacet
  facet normal 7.105427e-015 1.000000e+000 0.000000e+000
    outer loop
      vertex   -5.282499e+001 6.922966e+001 1.400000e+001
      vertex   -5.082499e+001 6.922966e+001 2.294118e-006
      vertex   -5.282499e+001 6.922966e+001 2.294118e-006
    endloop
  endfacet
  facet normal 1.000000e+000 2.368473e-014 0.000000e+000
    outer loop
      vertex   -5.082499e+001 4.322966e+001 0.000000e+000
      vertex   -5.082499e+001 4.472966e+001 7.000002e+000
      vertex   -5.082499e+001 4.322966e+001 1.400000e+001
    endloop
  endfacet
  facet normal 1.000000e+000 1.847078e-014 1.117276e-015
    outer loop
      vertex   -5.082499e+001 4.322966e+001 0.000000e+000
      vertex   -5.082499e+001 4.474060e+001 6.819197e+000
      vertex   -5.082499e+001 4.472966e+001 7.000002e+000
    endloop
  endfacet
  facet normal 1.000000e+000 1.286934e-014 2.358394e-015
    outer loop
      vertex   -5.082499e+001 4.322966e+001 0.000000e+000
      vertex   -5.082499e+001 4.477325e+001 6.641029e+000
      vertex   -5.082499e+001 4.474060e+001 6.819197e+000
    endloop
  endfacet
  facet normal 1.000000e+000 9.833093e-015 3.064116e-015
    outer loop
      vertex   -5.082499e+001 4.322966e+001 0.000000e+000
      vertex   -5.082499e+001 4.482714e+001 6.468095e+000
      vertex   -5.082499e+001 4.477325e+001 6.641029e+000
    endloop
  endfacet
  facet normal 1.000000e+000 7.879981e-015 3.546492e-015
    outer loop
      vertex   -5.082499e+001 4.322966e+001 0.000000e+000
      vertex   -5.082499e+001 4.490148e+001 6.302918e+000
      vertex   -5.082499e+001 4.482714e+001 6.468095e+000
    endloop
  endfacet
  facet normal 1.000000e+000 6.480613e-015 3.917667e-015
    outer loop
      vertex   -5.082499e+001 4.322966e+001 0.000000e+000
      vertex   -5.082499e+001 4.499519e+001 6.147905e+000
      vertex   -5.082499e+001 4.490148e+001 6.302918e+000
    endloop
  endfacet
  facet normal 1.000000e+000 5.397536e-015 4.228700e-015
    outer loop
      vertex   -5.082499e+001 4.322966e+001 0.000000e+000
      vertex   -5.082499e+001 4.510690e+001 6.005318e+000
      vertex   -5.082499e+001 4.499519e+001 6.147905e+000
    endloop
  endfacet
  facet normal 1.000000e+000 4.507059e-015 4.507059e-015
    outer loop
      vertex   -5.082499e+001 4.322966e+001 0.000000e+000
      vertex   -5.082499e+001 4.523498e+001 5.877236e+000
      vertex   -5.082499e+001 4.510690e+001 6.005318e+000
    endloop
  endfacet
  facet normal 1.000000e+000 3.736923e-015 4.769830e-015
    outer loop
      vertex   -5.082499e+001 4.322966e+001 0.000000e+000
      vertex   -5.082499e+001 4.537757e+001 5.765526e+000
      vertex   -5.082499e+001 4.523498e+001 5.877236e+000
    endloop
  endfacet
  facet normal 1.000000e+000 3.040340e-015 5.029337e-015
    outer loop
      vertex   -5.082499e+001 4.322966e+001 0.000000e+000
      vertex   -5.082499e+001 4.553258e+001 5.671818e+000
      vertex   -5.082499e+001 4.537757e+001 5.765526e+000
    endloop
  endfacet
  facet normal 1.000000e+000 2.383543e-015 5.296015e-015
    outer loop
      vertex   -5.082499e+001 4.322966e+001 0.000000e+000
      vertex   -5.082499e+001 4.569776e+001 5.597478e+000
      vertex   -5.082499e+001 4.553258e+001 5.671818e+000
    endloop
  endfacet
  facet normal 1.000000e+000 1.738881e-015 5.580266e-015
    outer loop
      vertex   -5.082499e+001 4.322966e+001 0.000000e+000
      vertex   -5.082499e+001 4.587069e+001 5.543590e+000
      vertex   -5.082499e+001 4.569776e+001 5.597478e+000
    endloop
  endfacet
  facet normal 1.000000e+000 1.080134e-015 5.894100e-015
    outer loop
      vertex   -5.082499e+001 4.322966e+001 0.000000e+000
      vertex   -5.082499e+001 4.604886e+001 5.510939e+000
      vertex   -5.082499e+001 4.587069e+001 5.543590e+000
    endloop
  endfacet
  facet normal 1.000000e+000 3.782465e-016 6.253160e-015
    outer loop
      vertex   -5.082499e+001 4.322966e+001 0.000000e+000
      vertex   -5.082499e+001 4.622966e+001 5.500002e+000
      vertex   -5.082499e+001 4.604886e+001 5.510939e+000
    endloop
  endfacet
  facet normal 1.000000e+000 -4.040578e-016 6.679872e-015
    outer loop
      vertex   -5.082499e+001 4.322966e+001 0.000000e+000
      vertex   -5.082499e+001 4.641047e+001 5.510939e+000
      vertex   -5.082499e+001 4.622966e+001 5.500002e+000
    endloop
  endfacet
  facet normal 1.000000e+000 -1.321133e-015 7.209190e-015
    outer loop
      vertex   -5.082499e+001 4.322966e+001 0.000000e+000
      vertex   -5.082499e+001 4.658864e+001 5.543590e+000
      vertex   -5.082499e+001 4.641047e+001 5.510939e+000
    endloop
  endfacet
  facet normal 1.000000e+000 -2.461857e-015 7.900378e-015
    outer loop
      vertex   -5.082499e+001 4.322966e+001 0.000000e+000
      vertex   -5.082499e+001 4.676157e+001 5.597478e+000
      vertex   -5.082499e+001 4.658864e+001 5.543590e+000
    endloop
  endfacet
  facet normal 1.000000e+000 -3.989493e-015 8.864289e-015
    outer loop
      vertex   -5.082499e+001 4.322966e+001 0.000000e+000
      vertex   -5.082499e+001 4.692675e+001 5.671818e+000
      vertex   -5.082499e+001 4.676157e+001 5.597478e+000
    endloop
  endfacet
  facet normal 1.000000e+000 1.366428e-015 5.373116e-015
    outer loop
      vertex   -5.082499e+001 4.322966e+001 0.000000e+000
      vertex   -5.082499e+001 6.922966e+001 2.294118e-006
      vertex   -5.082499e+001 4.692675e+001 5.671818e+000
    endloop
  endfacet
  facet normal 1.000000e+000 -0.000000e+000 -0.000000e+000
    outer loop
      vertex   -5.082499e+001 4.692675e+001 5.671818e+000
      vertex   -5.082499e+001 6.922966e+001 2.294118e-006
      vertex   -5.082499e+001 4.708176e+001 5.765526e+000
    endloop
  endfacet
  facet normal 1.000000e+000 -0.000000e+000 -0.000000e+000
    outer loop
      vertex   -5.082499e+001 4.708176e+001 5.765526e+000
      vertex   -5.082499e+001 6.922966e+001 2.294118e-006
      vertex   -5.082499e+001 4.722435e+001 5.877236e+000
    endloop
  endfacet
  facet normal 1.000000e+000 -0.000000e+000 -0.000000e+000
    outer loop
      vertex   -5.082499e+001 4.722435e+001 5.877236e+000
      vertex   -5.082499e+001 6.922966e+001 2.294118e-006
      vertex   -5.082499e+001 4.735243e+001 6.005318e+000
    endloop
  endfacet
  facet normal 1.000000e+000 -0.000000e+000 -0.000000e+000
    outer loop
      vertex   -5.082499e+001 4.735243e+001 6.005318e+000
      vertex   -5.082499e+001 6.922966e+001 2.294118e-006
      vertex   -5.082499e+001 4.746414e+001 6.147905e+000
    endloop
  endfacet
  facet normal 1.000000e+000 -0.000000e+000 -0.000000e+000
    outer loop
      vertex   -5.082499e+001 4.746414e+001 6.147905e+000
      vertex   -5.082499e+001 6.922966e+001 2.294118e-006
      vertex   -5.082499e+001 4.755785e+001 6.302918e+000
    endloop
  endfacet
  facet normal 1.000000e+000 -0.000000e+000 -0.000000e+000
    outer loop
      vertex   -5.082499e+001 4.755785e+001 6.302918e+000
      vertex   -5.082499e+001 6.922966e+001 2.294118e-006
      vertex   -5.082499e+001 4.763219e+001 6.468095e+000
    endloop
  endfacet
  facet normal 1.000000e+000 -0.000000e+000 -0.000000e+000
    outer loop
      vertex   -5.082499e+001 4.763219e+001 6.468095e+000
      vertex   -5.082499e+001 6.922966e+001 2.294118e-006
      vertex   -5.082499e+001 4.768608e+001 6.641029e+000
    endloop
  endfacet
  facet normal 1.000000e+000 -0.000000e+000 -0.000000e+000
    outer loop
      vertex   -5.082499e+001 4.768608e+001 6.641029e+000
      vertex   -5.082499e+001 6.922966e+001 2.294118e-006
      vertex   -5.082499e+001 4.771873e+001 6.819197e+000
    endloop
  endfacet
  facet normal 1.000000e+000 -0.000000e+000 -0.000000e+000
    outer loop
      vertex   -5.082499e+001 4.771873e+001 6.819197e+000
      vertex   -5.082499e+001 6.922966e+001 2.294118e-006
      vertex   -5.082499e+001 4.772966e+001 7.000002e+000
    endloop
  endfacet
  facet normal 1.000000e+000 -0.000000e+000 0.000000e+000
    outer loop
      vertex   -5.082499e+001 4.772966e+001 7.000002e+000
      vertex   -5.082499e+001 6.922966e+001 2.294118e-006
      vertex   -5.082499e+001 6.922966e+001 1.400000e+001
    endloop
  endfacet
  facet normal 1.000000e+000 0.000000e+000 -0.000000e+000
    outer loop
      vertex   -5.082499e+001 4.771873e+001 7.180807e+000
      vertex   -5.082499e+001 6.922966e+001 1.400000e+001
      vertex   -5.082499e+001 4.768608e+001 7.358976e+000
    endloop
  endfacet
  facet normal 1.000000e+000 -0.000000e+000 0.000000e+000
    outer loop
      vertex   -5.082499e+001 4.771873e+001 7.180807e+000
      vertex   -5.082499e+001 4.772966e+001 7.000002e+000
      vertex   -5.082499e+001 6.922966e+001 1.400000e+001
    endloop
  endfacet
  facet normal 1.000000e+000 1.366428e-015 -5.373118e-015
    outer loop
      vertex   -5.082499e+001 4.322966e+001 1.400000e+001
      vertex   -5.082499e+001 4.692675e+001 8.328186e+000
      vertex   -5.082499e+001 6.922966e+001 1.400000e+001
    endloop
  endfacet
  facet normal 1.000000e+000 -3.989495e-015 -8.864295e-015
    outer loop
      vertex   -5.082499e+001 4.322966e+001 1.400000e+001
      vertex   -5.082499e+001 4.676157e+001 8.402527e+000
      vertex   -5.082499e+001 4.692675e+001 8.328186e+000
    endloop
  endfacet
  facet normal 1.000000e+000 -2.461859e-015 -7.900383e-015
    outer loop
      vertex   -5.082499e+001 4.322966e+001 1.400000e+001
      vertex   -5.082499e+001 4.658864e+001 8.456415e+000
      vertex   -5.082499e+001 4.676157e+001 8.402527e+000
    endloop
  endfacet
  facet normal 1.000000e+000 -1.321134e-015 -7.209194e-015
    outer loop
      vertex   -5.082499e+001 4.322966e+001 1.400000e+001
      vertex   -5.082499e+001 4.641047e+001 8.489066e+000
      vertex   -5.082499e+001 4.658864e+001 8.456415e+000
    endloop
  endfacet
  facet normal 1.000000e+000 -4.040580e-016 -6.679875e-015
    outer loop
      vertex   -5.082499e+001 4.322966e+001 1.400000e+001
      vertex   -5.082499e+001 4.622966e+001 8.500002e+000
      vertex   -5.082499e+001 4.641047e+001 8.489066e+000
    endloop
  endfacet
  facet normal 1.000000e+000 3.782467e-016 -6.253163e-015
    outer loop
      vertex   -5.082499e+001 4.322966e+001 1.400000e+001
      vertex   -5.082499e+001 4.604886e+001 8.489066e+000
      vertex   -5.082499e+001 4.622966e+001 8.500002e+000
    endloop
  endfacet
  facet normal 1.000000e+000 1.080134e-015 -5.894103e-015
    outer loop
      vertex   -5.082499e+001 4.322966e+001 1.400000e+001
      vertex   -5.082499e+001 4.587069e+001 8.456415e+000
      vertex   -5.082499e+001 4.604886e+001 8.489066e+000
    endloop
  endfacet
  facet normal 1.000000e+000 1.738882e-015 -5.580268e-015
    outer loop
      vertex   -5.082499e+001 4.322966e+001 1.400000e+001
      vertex   -5.082499e+001 4.569776e+001 8.402527e+000
      vertex   -5.082499e+001 4.587069e+001 8.456415e+000
    endloop
  endfacet
  facet normal 1.000000e+000 2.383544e-015 -5.296017e-015
    outer loop
      vertex   -5.082499e+001 4.322966e+001 1.400000e+001
      vertex   -5.082499e+001 4.553258e+001 8.328186e+000
      vertex   -5.082499e+001 4.569776e+001 8.402527e+000
    endloop
  endfacet
  facet normal 1.000000e+000 3.040341e-015 -5.029339e-015
    outer loop
      vertex   -5.082499e+001 4.322966e+001 1.400000e+001
      vertex   -5.082499e+001 4.537757e+001 8.234478e+000
      vertex   -5.082499e+001 4.553258e+001 8.328186e+000
    endloop
  endfacet
  facet normal 1.000000e+000 3.736925e-015 -4.769832e-015
    outer loop
      vertex   -5.082499e+001 4.322966e+001 1.400000e+001
      vertex   -5.082499e+001 4.523498e+001 8.122768e+000
      vertex   -5.082499e+001 4.537757e+001 8.234478e+000
    endloop
  endfacet
  facet normal 1.000000e+000 4.507061e-015 -4.507061e-015
    outer loop
      vertex   -5.082499e+001 4.322966e+001 1.400000e+001
      vertex   -5.082499e+001 4.510690e+001 7.994686e+000
      vertex   -5.082499e+001 4.523498e+001 8.122768e+000
    endloop
  endfacet
  facet normal 1.000000e+000 5.397538e-015 -4.228701e-015
    outer loop
      vertex   -5.082499e+001 4.322966e+001 1.400000e+001
      vertex   -5.082499e+001 4.499519e+001 7.852099e+000
      vertex   -5.082499e+001 4.510690e+001 7.994686e+000
    endloop
  endfacet
  facet normal 1.000000e+000 6.480615e-015 -3.917668e-015
    outer loop
      vertex   -5.082499e+001 4.322966e+001 1.400000e+001
      vertex   -5.082499e+001 4.490148e+001 7.697087e+000
      vertex   -5.082499e+001 4.499519e+001 7.852099e+000
    endloop
  endfacet
  facet normal 1.000000e+000 7.879983e-015 -3.546492e-015
    outer loop
      vertex   -5.082499e+001 4.322966e+001 1.400000e+001
      vertex   -5.082499e+001 4.482714e+001 7.531910e+000
      vertex   -5.082499e+001 4.490148e+001 7.697087e+000
    endloop
  endfacet
  facet normal 1.000000e+000 9.833095e-015 -3.064116e-015
    outer loop
      vertex   -5.082499e+001 4.322966e+001 1.400000e+001
      vertex   -5.082499e+001 4.477325e+001 7.358976e+000
      vertex   -5.082499e+001 4.482714e+001 7.531910e+000
    endloop
  endfacet
  facet normal 1.000000e+000 1.286934e-014 -2.358394e-015
    outer loop
      vertex   -5.082499e+001 4.322966e+001 1.400000e+001
      vertex   -5.082499e+001 4.474060e+001 7.180807e+000
      vertex   -5.082499e+001 4.477325e+001 7.358976e+000
    endloop
  endfacet
  facet normal 1.000000e+000 1.847078e-014 -1.117276e-015
    outer loop
      vertex   -5.082499e+001 4.322966e+001 1.400000e+001
      vertex   -5.082499e+001 4.472966e+001 7.000002e+000
      vertex   -5.082499e+001 4.474060e+001 7.180807e+000
    endloop
  endfacet
  facet normal 1.000000e+000 -0.000000e+000 0.000000e+000
    outer loop
      vertex   -5.082499e+001 4.692675e+001 8.328186e+000
      vertex   -5.082499e+001 4.708176e+001 8.234478e+000
      vertex   -5.082499e+001 6.922966e+001 1.400000e+001
    endloop
  endfacet
  facet normal 1.000000e+000 0.000000e+000 0.000000e+000
    outer loop
      vertex   -5.082499e+001 6.922966e+001 1.400000e+001
      vertex   -5.082499e+001 4.708176e+001 8.234478e+000
      vertex   -5.082499e+001 4.722435e+001 8.122768e+000
    endloop
  endfacet
  facet normal 1.000000e+000 0.000000e+000 -0.000000e+000
    outer loop
      vertex   -5.082499e+001 4.735243e+001 7.994686e+000
      vertex   -5.082499e+001 6.922966e+001 1.400000e+001
      vertex   -5.082499e+001 4.722435e+001 8.122768e+000
    endloop
  endfacet
  facet normal 1.000000e+000 -0.000000e+000 0.000000e+000
    outer loop
      vertex   -5.082499e+001 4.735243e+001 7.994686e+000
      vertex   -5.082499e+001 4.746414e+001 7.852099e+000
      vertex   -5.082499e+001 6.922966e+001 1.400000e+001
    endloop
  endfacet
  facet normal 1.000000e+000 0.000000e+000 0.000000e+000
    outer loop
      vertex   -5.082499e+001 6.922966e+001 1.400000e+001
      vertex   -5.082499e+001 4.746414e+001 7.852099e+000
      vertex   -5.082499e+001 4.755785e+001 7.697087e+000
    endloop
  endfacet
  facet normal 1.000000e+000 0.000000e+000 -0.000000e+000
    outer loop
      vertex   -5.082499e+001 4.763219e+001 7.531910e+000
      vertex   -5.082499e+001 6.922966e+001 1.400000e+001
      vertex   -5.082499e+001 4.755785e+001 7.697087e+000
    endloop
  endfacet
  facet normal 1.000000e+000 -0.000000e+000 0.000000e+000
    outer loop
      vertex   -5.082499e+001 4.763219e+001 7.531910e+000
      vertex   -5.082499e+001 4.768608e+001 7.358976e+000
      vertex   -5.082499e+001 6.922966e+001 1.400000e+001
    endloop
  endfacet
  facet normal 6.269497e-022 8.823532e-008 -1.000000e+000
    outer loop
      vertex   -5.282499e+001 6.922966e+001 2.294118e-006
      vertex   -5.082499e+001 6.922966e+001 2.294118e-006
      vertex   -5.282499e+001 4.322966e+001 0.000000e+000
    endloop
  endfacet
  facet normal 0.000000e+000 8.823532e-008 -1.000000e+000
    outer loop
      vertex   -5.282499e+001 4.322966e+001 0.000000e+000
      vertex   -5.082499e+001 6.922966e+001 2.294118e-006
      vertex   -5.082499e+001 4.322966e+001 0.000000e+000
    endloop
  endfacet
  facet normal 0.000000e+000 0.000000e+000 -1.000000e+000
    outer loop
      vertex   -5.282499e+001 4.122966e+001 0.000000e+000
      vertex   -5.082499e+001 4.322966e+001 0.000000e+000
      vertex   -5.082499e+001 4.122966e+001 0.000000e+000
    endloop
  endfacet
  facet normal 0.000000e+000 0.000000e+000 -1.000000e+000
    outer loop
      vertex   -5.282499e+001 3.122966e+001 0.000000e+000
      vertex   -5.082499e+001 4.122966e+001 0.000000e+000
      vertex   -5.082499e+001 3.122966e+001 0.000000e+000
    endloop
  endfacet
  facet normal 0.000000e+000 0.000000e+000 -1.000000e+000
    outer loop
      vertex   -5.282499e+001 2.922966e+001 0.000000e+000
      vertex   -5.082499e+001 3.122966e+001 0.000000e+000
      vertex   -5.082499e+001 2.922966e+001 0.000000e+000
    endloop
  endfacet
  facet normal 0.000000e+000 -1.638656e-007 -1.000000e+000
    outer loop
      vertex   -5.282499e+001 1.522966e+001 2.294118e-006
      vertex   -5.082499e+001 2.922966e+001 0.000000e+000
      vertex   -5.082499e+001 1.522966e+001 2.294118e-006
    endloop
  endfacet
  facet normal 0.000000e+000 -1.638656e-007 -1.000000e+000
    outer loop
      vertex   -5.282499e+001 1.522966e+001 2.294118e-006
      vertex   -5.282499e+001 2.922966e+001 0.000000e+000
      vertex   -5.082499e+001 2.922966e+001 0.000000e+000
    endloop
  endfacet
  facet normal 0.000000e+000 -0.000000e+000 -1.000000e+000
    outer loop
      vertex   -5.082499e+001 4.322966e+001 0.000000e+000
      vertex   -4.882499e+001 4.322966e+001 0.000000e+000
      vertex   -5.082499e+001 4.122966e+001 0.000000e+000
    endloop
  endfacet
  facet normal 0.000000e+000 0.000000e+000 -1.000000e+000
    outer loop
      vertex   -5.082499e+001 4.122966e+001 0.000000e+000
      vertex   -4.882499e+001 4.322966e+001 0.000000e+000
      vertex   -4.882499e+001 4.122966e+001 0.000000e+000
    endloop
  endfacet
  facet normal 0.000000e+000 -0.000000e+000 -1.000000e+000
    outer loop
      vertex   -5.282499e+001 4.122966e+001 0.000000e+000
      vertex   -5.082499e+001 4.122966e+001 0.000000e+000
      vertex   -5.282499e+001 3.122966e+001 0.000000e+000
    endloop
  endfacet
  facet normal 0.000000e+000 -0.000000e+000 -1.000000e+000
    outer loop
      vertex   -5.082499e+001 3.122966e+001 0.000000e+000
      vertex   -4.882499e+001 3.122966e+001 0.000000e+000
      vertex   -5.082499e+001 2.922966e+001 0.000000e+000
    endloop
  endfacet
  facet normal 0.000000e+000 0.000000e+000 -1.000000e+000
    outer loop
      vertex   -5.082499e+001 2.922966e+001 0.000000e+000
      vertex   -4.882499e+001 3.122966e+001 0.000000e+000
      vertex   -4.882499e+001 2.922966e+001 0.000000e+000
    endloop
  endfacet
  facet normal -0.000000e+000 0.000000e+000 -1.000000e+000
    outer loop
      vertex   -5.082499e+001 3.122966e+001 0.000000e+000
      vertex   -5.282499e+001 2.922966e+001 0.000000e+000
      vertex   -5.282499e+001 3.122966e+001 0.000000e+000
    endloop
  endfacet
  facet normal -0.000000e+000 -0.000000e+000 -1.000000e+000
    outer loop
      vertex   -5.282499e+001 3.122966e+001 0.000000e+000
      vertex   -5.282499e+001 2.922966e+001 0.000000e+000
      vertex   -5.482499e+001 2.922966e+001 0.000000e+000
    endloop
  endfacet
  facet normal 0.000000e+000 -0.000000e+000 -1.000000e+000
    outer loop
      vertex   -5.482499e+001 3.122966e+001 0.000000e+000
      vertex   -5.282499e+001 3.122966e+001 0.000000e+000
      vertex   -5.482499e+001 2.922966e+001 0.000000e+000
    endloop
  endfacet
  facet normal 0.000000e+000 0.000000e+000 -1.000000e+000
    outer loop
      vertex   -5.482499e+001 4.122966e+001 0.000000e+000
      vertex   -5.482499e+001 4.322966e+001 0.000000e+000
      vertex   -5.282499e+001 4.122966e+001 0.000000e+000
    endloop
  endfacet
  facet normal 0.000000e+000 0.000000e+000 -1.000000e+000
    outer loop
      vertex   -5.282499e+001 4.122966e+001 0.000000e+000
      vertex   -5.482499e+001 4.322966e+001 0.000000e+000
      vertex   -5.282499e+001 4.322966e+001 0.000000e+000
    endloop
  endfacet
  facet normal -0.000000e+000 0.000000e+000 -1.000000e+000
    outer loop
      vertex   -5.082499e+001 4.322966e+001 0.000000e+000
      vertex   -5.282499e+001 4.122966e+001 0.000000e+000
      vertex   -5.282499e+001 4.322966e+001 0.000000e+000
    endloop
  endfacet
  facet normal -1.000000e+000 1.015061e-015 0.000000e+000
    outer loop
      vertex   -5.282499e+001 2.922966e+001 0.000000e+000
      vertex   -5.282499e+001 1.522966e+001 2.294118e-006
      vertex   -5.282499e+001 2.922966e+001 1.400000e+001
    endloop
  endfacet
  facet normal -1.000000e+000 1.015061e-015 0.000000e+000
    outer loop
      vertex   -5.282499e+001 2.922966e+001 1.400000e+001
      vertex   -5.282499e+001 1.522966e+001 2.294118e-006
      vertex   -5.282499e+001 1.522966e+001 1.400000e+001
    endloop
  endfacet
  facet normal -1.056986e-022 -1.487576e-008 1.000000e+000
    outer loop
      vertex   -5.082499e+001 6.922966e+001 1.400000e+001
      vertex   -5.282499e+001 6.922966e+001 1.400000e+001
      vertex   -5.082499e+001 4.322966e+001 1.400000e+001
    endloop
  endfacet
  facet normal 0.000000e+000 -1.487576e-008 1.000000e+000
    outer loop
      vertex   -5.082499e+001 4.322966e+001 1.400000e+001
      vertex   -5.282499e+001 6.922966e+001 1.400000e+001
      vertex   -5.282499e+001 4.322966e+001 1.400000e+001
    endloop
  endfacet
  facet normal 0.000000e+000 0.000000e+000 1.000000e+000
    outer loop
      vertex   -5.082499e+001 4.122966e+001 1.400000e+001
      vertex   -5.282499e+001 4.322966e+001 1.400000e+001
      vertex   -5.282499e+001 4.122966e+001 1.400000e+001
    endloop
  endfacet
  facet normal 0.000000e+000 0.000000e+000 1.000000e+000
    outer loop
      vertex   -5.082499e+001 3.122966e+001 1.400000e+001
      vertex   -5.282499e+001 4.122966e+001 1.400000e+001
      vertex   -5.282499e+001 3.122966e+001 1.400000e+001
    endloop
  endfacet
  facet normal 0.000000e+000 0.000000e+000 1.000000e+000
    outer loop
      vertex   -5.082499e+001 2.922966e+001 1.400000e+001
      vertex   -5.282499e+001 3.122966e+001 1.400000e+001
      vertex   -5.282499e+001 2.922966e+001 1.400000e+001
    endloop
  endfacet
  facet normal 0.000000e+000 2.762642e-008 1.000000e+000
    outer loop
      vertex   -5.082499e+001 1.522966e+001 1.400000e+001
      vertex   -5.282499e+001 2.922966e+001 1.400000e+001
      vertex   -5.282499e+001 1.522966e+001 1.400000e+001
    endloop
  endfacet
  facet normal 0.000000e+000 2.762642e-008 1.000000e+000
    outer loop
      vertex   -5.082499e+001 1.522966e+001 1.400000e+001
      vertex   -5.082499e+001 2.922966e+001 1.400000e+001
      vertex   -5.282499e+001 2.922966e+001 1.400000e+001
    endloop
  endfacet
  facet normal 0.000000e+000 0.000000e+000 1.000000e+000
    outer loop
      vertex   -5.282499e+001 4.322966e+001 1.400000e+001
      vertex   -5.482499e+001 4.322966e+001 1.400000e+001
      vertex   -5.282499e+001 4.122966e+001 1.400000e+001
    endloop
  endfacet
  facet normal 0.000000e+000 0.000000e+000 1.000000e+000
    outer loop
      vertex   -5.282499e+001 4.122966e+001 1.400000e+001
      vertex   -5.482499e+001 4.322966e+001 1.400000e+001
      vertex   -5.482499e+001 4.122966e+001 1.400000e+001
    endloop
  endfacet
  facet normal 0.000000e+000 0.000000e+000 1.000000e+000
    outer loop
      vertex   -5.082499e+001 4.122966e+001 1.400000e+001
      vertex   -5.282499e+001 4.122966e+001 1.400000e+001
      vertex   -5.082499e+001 3.122966e+001 1.400000e+001
    endloop
  endfacet
  facet normal 0.000000e+000 0.000000e+000 1.000000e+000
    outer loop
      vertex   -5.282499e+001 3.122966e+001 1.400000e+001
      vertex   -5.482499e+001 3.122966e+001 1.400000e+001
      vertex   -5.282499e+001 2.922966e+001 1.400000e+001
    endloop
  endfacet
  facet normal 0.000000e+000 0.000000e+000 1.000000e+000
    outer loop
      vertex   -5.282499e+001 2.922966e+001 1.400000e+001
      vertex   -5.482499e+001 3.122966e+001 1.400000e+001
      vertex   -5.482499e+001 2.922966e+001 1.400000e+001
    endloop
  endfacet
  facet normal -0.000000e+000 0.000000e+000 1.000000e+000
    outer loop
      vertex   -5.282499e+001 3.122966e+001 1.400000e+001
      vertex   -5.082499e+001 2.922966e+001 1.400000e+001
      vertex   -5.082499e+001 3.122966e+001 1.400000e+001
    endloop
  endfacet
  facet normal -0.000000e+000 0.000000e+000 1.000000e+000
    outer loop
      vertex   -5.082499e+001 3.122966e+001 1.400000e+001
      vertex   -5.082499e+001 2.922966e+001 1.400000e+001
      vertex   -4.882499e+001 2.922966e+001 1.400000e+001
    endloop
  endfacet
  facet normal 0.000000e+000 0.000000e+000 1.000000e+000
    outer loop
      vertex   -4.882499e+001 3.122966e+001 1.400000e+001
      vertex   -5.082499e+001 3.122966e+001 1.400000e+001
      vertex   -4.882499e+001 2.922966e+001 1.400000e+001
    endloop
  endfacet
  facet normal -0.000000e+000 0.000000e+000 1.000000e+000
    outer loop
      vertex   -5.282499e+001 4.322966e+001 1.400000e+001
      vertex   -5.082499e+001 4.122966e+001 1.400000e+001
      vertex   -5.082499e+001 4.322966e+001 1.400000e+001
    endloop
  endfacet
  facet normal -0.000000e+000 0.000000e+000 1.000000e+000
    outer loop
      vertex   -5.082499e+001 4.322966e+001 1.400000e+001
      vertex   -5.082499e+001 4.122966e+001 1.400000e+001
      vertex   -4.882499e+001 4.122966e+001 1.400000e+001
    endloop
  endfacet
  facet normal 0.000000e+000 0.000000e+000 1.000000e+000
    outer loop
      vertex   -4.882499e+001 4.322966e+001 1.400000e+001
      vertex   -5.082499e+001 4.322966e+001 1.400000e+001
      vertex   -4.882499e+001 4.122966e+001 1.400000e+001
    endloop
  endfacet
endsolid
